<svg id="brand-1" xmlns="http://www.w3.org/2000/svg" width="67.564" height="62.354" viewBox="0 0 67.564 62.354">
  <g id="Group_50" data-name="Group 50" transform="translate(0 0)">
    <path id="Path_47" data-name="Path 47" d="M320.108,89.977a1.884,1.884,0,0,0,.068.613,1.987,1.987,0,0,0,.136.613,3.453,3.453,0,0,0,.613,1.089,5.034,5.034,0,0,0,1.906,1.43c.2.068.34.136.545.2s.408.068.545.136a7,7,0,0,0,1.157.068H326.3c.136,0,.408-.068.613-.068.2-.068.34-.068.545-.136h.136l.408.068h2.246a1.158,1.158,0,0,0,.477-.068l.408-.136h.2l.408.068h2.178a1.159,1.159,0,0,0,.477-.068l.34-.068h.272l.408.068H337.6a1.159,1.159,0,0,0,.477-.068l.34-.068.136-.068.2.068.408.068h2.11a1.158,1.158,0,0,0,.477-.068.614.614,0,0,1,.34-.068l.2-.068.2.068.408.068h.817l.477-.068,1.021-.136.477-.068.272-.068h.068l3-.953h.136l1.089-.136c.34,0,.749-.068,1.089-.068h2.314l.272.272a4.8,4.8,0,0,0,.613.477,2.13,2.13,0,0,0,.681.34,2.413,2.413,0,0,0,.749.2c.272.068.477.068.749.136h2.519c.136,0,.34,0,.408-.068.068,0,.2-.068.272-.068l.272-.068.272.068.34.068h2.042c.136,0,.34,0,.408-.068.068,0,.2-.068.272-.068l.272-.068.272.068.34.068h2.042c.136,0,.34,0,.408-.068.068,0,.2-.068.272-.068l.272-.068.272.068.34.068h2.451c.068,0,.2-.068.272-.068l.272-.068.272.068c.2,0,.34.068.545.068h.681c.2,0,.408-.068.613-.068l.613-.2a2.418,2.418,0,0,0,.613-.272c.2-.136.34-.2.545-.34.136-.136.34-.272.477-.408a2.068,2.068,0,0,0,.34-.477,4.038,4.038,0,0,0,.272-.545,2.1,2.1,0,0,0,.136-.545v-4.9l.068-.2a29.614,29.614,0,0,0,1.361-4.152c.2-.681.34-1.43.477-2.11.136-.749.272-1.43.34-2.178s.2-1.43.2-2.178l.068-1.089V72.618c0-.749-.068-1.43-.136-2.178-.068-.681-.2-1.43-.34-2.178a42.391,42.391,0,0,0-1.021-4.221c-.136-.34-.2-.681-.34-1.021l-.068-.272-.068-.136-.068-.136v-.068l-.136-.545a8.007,8.007,0,0,1-.2-1.43V59.276l.068-8.986v-.2h0v-.272l-.068-.545v-.136l-.068-.068-.068-.2c-.068-.136-.068-.272-.136-.408a5.077,5.077,0,0,0-.477-.817c-.2-.2-.34-.545-.613-.681l-.34-.272c-.136-.136-.272-.136-.408-.2l-.408-.2-.408-.136a2.011,2.011,0,0,0-.885-.136h-1.021l-8.986-.136-8.986-.136-2.246-.068a10.391,10.391,0,0,0-2.11.068,3.861,3.861,0,0,0-1.838.885c-.136.136-.272.2-.408.34l-.136.136-.136.2a3.118,3.118,0,0,0-.545.885v-.068l-.408,1.974v-.068l.068.545c0,.2.068.408.068.545a6.706,6.706,0,0,1,.136,1.157c0,.2.068.408.068.613l.068.613.068,1.157.068,1.157V57.03a6.227,6.227,0,0,1-.068,1.157,1.884,1.884,0,0,1-.068.613l-.068.613h0l.068-.613V57.03a1.327,1.327,0,0,0-.068-.545c0-.2-.068-.408-.068-.545l-.136-1.157-.136-1.157-.068-.613c0-.2-.068-.34-.068-.545-.068-.408-.136-.749-.2-1.157a2.526,2.526,0,0,0-.136-.613l-.068-.613h0v-.068l.34-1.974v-.068h0c.2-.408.34-.749.545-1.089l.136-.2c.068-.136.136-.136.2-.272l.408-.408a5.19,5.19,0,0,1,2.178-1.157,14.543,14.543,0,0,1,2.314-.2l2.246-.068,8.986-.136,8.986-.136h1.157a8.511,8.511,0,0,1,1.293.2l.613.2c.2.068.408.2.613.272a3.8,3.8,0,0,1,.545.34l.545.408a5.878,5.878,0,0,1,.885.953,6.465,6.465,0,0,1,.681,1.157l.2.681.068.34a.614.614,0,0,1,.068.34l.068.545v.477h0v.136l.068,8.986V60.5c0,.2.068.272.068.408v.136c0,.068.068.2.068.272l.136.545v.068c-.068-.136,0,0,0-.068h0v.068l.068.136.068.272a6.69,6.69,0,0,1,.34,1.089,36.314,36.314,0,0,1,1.157,4.493c.136.749.272,1.5.34,2.314s.136,1.566.136,2.314a6.557,6.557,0,0,1,0,1.157l-.068,1.157c0,.749-.136,1.566-.2,2.314s-.2,1.5-.34,2.314c-.136.749-.34,1.5-.545,2.246a33.829,33.829,0,0,1-1.5,4.425l.068-.408v4.016a5.177,5.177,0,0,1-.068.953c-.068.34-.136.681-.2.953-.136.34-.272.613-.408.885a6.384,6.384,0,0,1-.613.817,3.569,3.569,0,0,1-.749.681c-.272.2-.545.34-.817.545-.272.136-.545.272-.885.408-.272.068-.613.2-.885.272s-.681.068-.953.136H371.5a2.731,2.731,0,0,1-1.021-.2h.545c-.2.068-.408.068-.613.136h-2.451a1.327,1.327,0,0,1-.545-.068l-.545-.136h.545c-.2.068-.408.068-.613.136s-.34,0-.477.068h-1.974a1.885,1.885,0,0,1-.613-.068l-.545-.136h.545c-.2.068-.408.068-.613.136s-.34,0-.477.068H360.68a1.885,1.885,0,0,1-.613-.068l-.545-.136h.545c-.2.068-.408.068-.613.136s-.34,0-.477.068H357.14a4.494,4.494,0,0,1-.953-.068,5.426,5.426,0,0,1-1.021-.2,3.936,3.936,0,0,1-.953-.34c-.34-.136-.613-.34-.953-.477a7.213,7.213,0,0,1-.817-.681l.545.2h-2.042a4.494,4.494,0,0,0-.953.068l-.953.136h.068l-3,.817h-.681l-.477.068-1.021.136-.477.068h-.545a1.884,1.884,0,0,1-.613-.068l-.545-.136h.408l-.613.136c-.2.068-.34,0-.477.068h-1.906a1.5,1.5,0,0,1-.545-.068l-.545-.136h.34l-.545.136c-.2.068-.34,0-.477.068h-.953a4.494,4.494,0,0,1-.953-.068,1.5,1.5,0,0,1-.545-.068l-.545-.136h.272l-.545.136c-.2.068-.34,0-.477.068H332.7a4.5,4.5,0,0,1-.953-.068,1.5,1.5,0,0,1-.545-.068l-.477-.136h.2l-.545.136c-.2.068-.34,0-.477.068h-.953a4.494,4.494,0,0,1-.953-.068,1.159,1.159,0,0,1-.477-.068l-.477-.136h.2c-.2.068-.477.068-.681.136h-1.838a7.5,7.5,0,0,1-1.225-.136,2.163,2.163,0,0,1-.613-.2l-.613-.2a4.4,4.4,0,0,1-1.906-1.634,3.611,3.611,0,0,1-.545-1.157c-.068-.2-.068-.408-.136-.613A1.088,1.088,0,0,0,320.108,89.977Z" transform="translate(-313.091 -44.3)" fill="#3c3c3c"/>
    <g id="Group_48" data-name="Group 48" transform="translate(0 7.352)">
      <path id="Path_48" data-name="Path 48" d="M314.422,100.3l.136-1.838c.817.068,1.021-.749,1.089-1.157,0-.34,0-.885-.408-.885-.749-.068-.749,3.812-3.267,3.608a2.455,2.455,0,0,1-.817-4.493l-.817-.136.136-1.7,2.519.2-.136,1.77a1.093,1.093,0,0,0-1.225,1.157c0,.272.136.681.477.749,1.021.068,1.089-3.88,3.472-3.676,1.566.136,1.974,1.634,1.906,2.791a2.558,2.558,0,0,1-1.089,1.974l.749.2-.136,1.77Z" transform="translate(-309.992 -67.424)" fill="#3c3c3c"/>
      <path id="Path_49" data-name="Path 49" d="M311.649,85.634c.545-2.246,1.634-2.451,2.723-2.178,1.293.272,1.634,1.634,1.293,3l-.2.749,1.5.34.136-.613,1.293.272-.749,3.131-1.293-.272.136-.545-4.152-.953-.136.545-1.293-.272Zm2.791,1.293.136-.408a.869.869,0,0,0-.613-1.157.842.842,0,0,0-1.089.681l-.136.477Z" transform="translate(-310.282 -64.123)" fill="#3c3c3c"/>
      <path id="Path_50" data-name="Path 50" d="M316.255,72.7l1.974.953-.749,1.566-.817-.408-.681,1.43,1.225.613.817-1.7,1.225.545-.817,1.7,1.5.681.681-1.43-.817-.408.749-1.566,2.042.953L320,81.073l-1.225-.545.272-.545L315.1,78.146l-.272.545-1.225-.545Z" transform="translate(-311.144 -60.719)" fill="#3c3c3c"/>
      <path id="Path_51" data-name="Path 51" d="M328.271,66.976a4.438,4.438,0,0,1-.953,3.2,3.333,3.333,0,0,1-5.037.2,3.448,3.448,0,0,1-.681-4.7A1.865,1.865,0,0,1,323.165,65l-.272-.545,1.021-1.157,2.11,1.906L324.8,66.5a1.114,1.114,0,0,0-1.634-.068c-.477.545-.136,1.5.681,2.178a1.661,1.661,0,0,0,2.383.2,2.554,2.554,0,0,0,.34-1.838Z" transform="translate(-313.493 -57.718)" fill="#3c3c3c"/>
      <path id="Path_52" data-name="Path 52" d="M330.591,58.9l.681,1.089-.545.34,2.246,3.676.545-.34.681,1.157-2.791,1.77-.681-1.157.545-.34-2.246-3.676-.545.34L327.8,60.67Z" transform="translate(-315.677 -56.313)" fill="#3c3c3c"/>
      <path id="Path_53" data-name="Path 53" d="M340.684,63.08l-.272-1.293.953-.2-.34-.613-1.974.477-.068.681.749-.136L340,63.284l-3.131.681-.272-1.293.681-.136.34-4.561-.408.068-.272-1.225L340.684,56l2.927,5.174.681-.136.272,1.293Zm-.272-3.131-1.089-1.974-.136,2.246Z" transform="translate(-318.487 -55.387)" fill="#3c3c3c"/>
      <path id="Path_54" data-name="Path 54" d="M351.948,55.44l-.136,1.293-.545-.068-.477,4.289,1.293.2.136-1.293,1.634.2-.272,2.587L348,62.043l.136-1.293.545.068.477-4.289-.477-.136.136-1.293Z" transform="translate(-322.127 -55.1)" fill="#3c3c3c"/>
    </g>
    <g id="Group_49" data-name="Group 49" transform="translate(9.74 4.289)">
      <path id="Path_55" data-name="Path 55" d="M376.423,65.508a10.129,10.129,0,0,1-.545-2.859V52.1a1.511,1.511,0,0,0-1.5-1.5h-22.26a1.177,1.177,0,0,0-1.225,1.43c0,.136.068.34.068.545l2.451.34a1.481,1.481,0,0,1,1.089-.477,1.382,1.382,0,0,1,1.361,1.43A1.425,1.425,0,0,1,354.5,55.3a1.444,1.444,0,0,1-1.293-.817l-1.974-.272c.136,1.089.34,2.383.408,3.608l2.246,1.089a1.988,1.988,0,0,1,.613-.136,1.382,1.382,0,0,1,1.361,1.43,1.4,1.4,0,1,1-2.791,0h0l-1.43-.681a11.751,11.751,0,0,1-.34,3.267.59.59,0,0,1,.477.272l1.5,1.7h.272a1.43,1.43,0,1,1-1.43,1.43.51.51,0,0,1,.068-.34l-1.43-1.7c-.068.068-.068.136-.136.136a4.724,4.724,0,0,1-2.791.749l.545,1.77a1.391,1.391,0,0,1,1.089,1.361,1.43,1.43,0,1,1-2.519-.885l-.749-2.314c-1.089-.068-2.11-.2-3-.34v2.383a1.4,1.4,0,0,1,.681,1.157,1.43,1.43,0,1,1-2.859,0,1.318,1.318,0,0,1,.681-1.157V64.419a2.176,2.176,0,0,0-.477-.068c-10.892,0-15.929,10.279-15.929,22.872h50.374a29.3,29.3,0,0,0,2.451-11.436A25.783,25.783,0,0,0,376.423,65.508Zm-2.11-13.274v3.2a60.09,60.09,0,0,1-8.237.749c-3.131,0-4.084-.545-4.357-.681a12.181,12.181,0,0,1-1.021-3.267Zm.545,33.22H359.541a16.543,16.543,0,0,1,16.406-14.908h.408a25.793,25.793,0,0,1,.545,4.969A32.8,32.8,0,0,1,374.857,85.453Z" transform="translate(-324.619 -50.6)" fill="#3c3c3c"/>
      <path id="Path_56" data-name="Path 56" d="M375.559,109.836c0,.408-.681.749-1.5.749h-.068a.3.3,0,0,1-.068-.2v-.613a.217.217,0,0,0-.2-.2h-1.5a.217.217,0,0,0-.2.2v.613a.181.181,0,0,1-.2.2h-1.5a.18.18,0,0,1-.2-.2v-.613a.217.217,0,0,0-.2-.2h-1.5a.18.18,0,0,0-.2.2v.613a.18.18,0,0,1-.2.2h-1.5a.217.217,0,0,1-.2-.2v-.613a.217.217,0,0,0-.2-.2h-1.5a.18.18,0,0,0-.2.2v.613a.181.181,0,0,1-.2.2h-1.5a.18.18,0,0,1-.2-.2v-.613a.217.217,0,0,0-.2-.2h-1.5a.18.18,0,0,0-.2.2v.613a.18.18,0,0,1-.2.2h-1.906c-.817,0-1.5-.34-1.5-.749v-.749h-4.357a21.274,21.274,0,0,0-2.927.272l-3,.885a16.536,16.536,0,0,1-2.042.272.18.18,0,0,1-.2-.2v-.749a.217.217,0,0,0-.2-.2h-1.5a.18.18,0,0,0-.2.2v.885a.18.18,0,0,1-.2.2h-1.5a.217.217,0,0,1-.2-.2v-.885a.217.217,0,0,0-.2-.2h-1.5a.18.18,0,0,0-.2.2v.885a.181.181,0,0,1-.2.2h-1.5a.217.217,0,0,1-.2-.2v-.885a.217.217,0,0,0-.2-.2h-1.5a.18.18,0,0,0-.2.2v.885a.181.181,0,0,1-.2.2h-1.5a.217.217,0,0,1-.2-.2v-.885a.217.217,0,0,0-.2-.2h-1.5a.18.18,0,0,0-.2.2v.885a.181.181,0,0,1-.2.2h-1.5a.217.217,0,0,1-.2-.2v-.885a.217.217,0,0,0-.2-.2h-1.5a.18.18,0,0,0-.2.2v.885a.18.18,0,0,1-.2.2H325.8c-.817,0-1.5-.34-1.5-.749v-3.4h50.374v2.655C375.559,109.155,375.559,109.427,375.559,109.836Z" transform="translate(-324.3 -68.447)" fill="#3c3c3c"/>
    </g>
  </g>
  <g id="Group_51" data-name="Group 51" transform="translate(10.217 52.348)">
    <path id="Path_57" data-name="Path 57" d="M325,127.531h2.519c0,1.157,1.157,1.293,1.7,1.361.477,0,1.157-.136,1.157-.681,0-1.021-5.174-.613-5.174-4.084a3.119,3.119,0,0,1,3.2-2.927,3.041,3.041,0,0,1,2.859,1.361l.136-1.157h2.314v3.4h-2.451a1.573,1.573,0,0,0-1.7-1.566c-.408,0-.953.272-.953.749,0,1.361,5.378,1.089,5.378,4.221,0,2.11-1.974,2.859-3.608,2.859a3.492,3.492,0,0,1-2.791-1.225l-.136,1.021H325Z" transform="translate(-325 -121.2)" fill="#3c3c3c"/>
    <path id="Path_58" data-name="Path 58" d="M343.425,121.6v1.77h-.817v2.042h2.587V123.37h-.817V121.6H348.8v1.77h-.817v5.854h.817v1.77h-4.425v-1.77h.817v-2.042h-2.587v2.042h.817v1.77H339v-1.77h.749V123.37H339V121.6h4.425Z" transform="translate(-329.47 -121.328)" fill="#3c3c3c"/>
    <path id="Path_59" data-name="Path 59" d="M354.1,126.2a4.611,4.611,0,0,1,4.765-4.9c3.336,0,4.833,1.974,4.833,5.037s-1.7,4.9-4.765,4.9C356.074,131.171,354.1,129.537,354.1,126.2Zm6.195.068c0-1.634-.477-2.927-1.5-2.927-.817,0-1.361,1.157-1.361,2.859,0,1.77.613,2.927,1.5,2.927C359.818,129.06,360.295,127.971,360.295,126.269Z" transform="translate(-334.291 -121.232)" fill="#3c3c3c"/>
    <path id="Path_60" data-name="Path 60" d="M377.169,121.6v3h-2.315V123.37h-2.178v1.838h2.587v1.77h-2.587v2.178h2.178V128h2.315v3.063H369v-1.77h.817v-5.854H369v-1.77h8.169Z" transform="translate(-339.048 -121.328)" fill="#3c3c3c"/>
    <path id="Path_61" data-name="Path 61" d="M381.9,127.531h2.519c0,1.157,1.157,1.293,1.7,1.361.477,0,1.157-.136,1.157-.681,0-1.021-5.174-.613-5.174-4.084a3.119,3.119,0,0,1,3.2-2.927,3.041,3.041,0,0,1,2.859,1.361l.136-1.157h2.314v3.4h-2.451a1.573,1.573,0,0,0-1.7-1.566c-.408,0-.953.272-.953.749,0,1.361,5.378,1.089,5.378,4.221,0,2.11-1.974,2.859-3.608,2.859a3.492,3.492,0,0,1-2.791-1.225l-.136,1.021h-2.383v-3.336Z" transform="translate(-343.167 -121.2)" fill="#3c3c3c"/>
  </g>
</svg>
