<svg id="brand-4" xmlns="http://www.w3.org/2000/svg" width="68.073" height="68.073" viewBox="0 0 68.073 68.073">
  <path id="Path_78" data-name="Path 78" d="M116.637,242.674l-.749.885.477.408-.613.885-.885-.681.817-1.021-.749-.545-.817,1.021-.749-.613.681-.817.477.34.749-.953-1.225-.885-2.451,3.267.681.545.272-.34,2.314,1.77-.272.34.749.545,2.519-3.2Z" transform="translate(-62.86 -195.976)" fill="#3c3c3c"/>
  <path id="Path_79" data-name="Path 79" d="M108.253,198.5l-.34-.272-.613.681,1.906,1.634.613-.681-.545-.408.613-.681.953.817.545-.681-.953-.817.817-.885.749.681-.408.408.885.817,1.021-1.157-3.063-2.655-.613.681.34.272Z" transform="translate(-61.487 -181.481)" fill="#3c3c3c"/>
  <path id="Path_80" data-name="Path 80" d="M110.751,224.838h-.681v.408h-.681v-.681h.749v-.545h-.749v-.545h.681v.408h.681V223H108.3v.477h.272v1.77H108.3v.477h2.451Z" transform="translate(-61.806 -190.325)" fill="#3c3c3c"/>
  <path id="Path_81" data-name="Path 81" d="M103.485,196.772a2.19,2.19,0,0,0,3.267-1.021,2.236,2.236,0,0,0-.953-3.4,2.292,2.292,0,0,0-3.267,1.021A2.357,2.357,0,0,0,103.485,196.772Zm.545-2.587c.408-.749.953-1.157,1.293-.953.477.272.34.953-.068,1.634-.408.749-.885,1.089-1.293.885C103.621,195.615,103.621,195,104.03,194.185Z" transform="translate(-59.85 -180.435)" fill="#3c3c3c"/>
  <path id="Path_82" data-name="Path 82" d="M96,225.534l.136-.068,4.289-.817-3.812-.749Z" transform="translate(-57.879 -190.612)" fill="#3c3c3c"/>
  <path id="Path_83" data-name="Path 83" d="M93.9,229.481l1.906,1.293L94.513,228.8Z" transform="translate(-57.209 -192.177)" fill="#3c3c3c"/>
  <path id="Path_84" data-name="Path 84" d="M94.257,189.321l.613.136-.613,2.859-.545-.068-.136.885,2.451.477.2-.885-.545-.136.545-2.859.545.068-.136.885.953.2.34-1.77L93.44,188.3,93.1,190l1.021.2Z" transform="translate(-56.953 -179.246)" fill="#3c3c3c"/>
  <path id="Path_85" data-name="Path 85" d="M90.385,233.4l-.885,1.021.34,1.77Z" transform="translate(-55.804 -193.646)" fill="#3c3c3c"/>
  <path id="Path_86" data-name="Path 86" d="M90.085,214.27l-.34-1.77-.545,2.791Z" transform="translate(-55.708 -186.973)" fill="#3c3c3c"/>
  <path id="Path_87" data-name="Path 87" d="M91.146,192.08h-.408l.068-2.927h.408v-.885l-2.246-.068v.885h.408l-.068,3H88.9v.885l2.246.068Z" transform="translate(-55.612 -179.214)" fill="#3c3c3c"/>
  <path id="Path_88" data-name="Path 88" d="M89.153,243.317c0-.136.136-.2.272-.2a.482.482,0,0,1,.545.477h.749v-1.021h-.681l-.068.34a.891.891,0,0,0-.817-.408.909.909,0,0,0-.953.885c0,1.021,1.566.885,1.566,1.225,0,.2-.2.2-.34.2-.2,0-.477-.068-.477-.408H88.2v1.021h.681l.068-.272a.928.928,0,0,0,.817.34c.477,0,1.021-.2,1.021-.817C90.719,243.657,89.153,243.725,89.153,243.317Z" transform="translate(-55.389 -196.551)" fill="#3c3c3c"/>
  <path id="Path_89" data-name="Path 89" d="M89.025,205.446h-.34v-.953l1.021,1.5h.885v-2.246h.2V203.2H89.638v.545h.272v.953l-1.021-1.5H87.8v.545H88v1.7h-.2v.545h1.225Z" transform="translate(-55.261 -184.003)" fill="#3c3c3c"/>
  <path id="Path_90" data-name="Path 90" d="M101.682,248.333l-.34.272.136.136c.068.136.068.2,0,.272s-.2,0-.408-.272a1.03,1.03,0,0,0-1.293-.136.976.976,0,0,0,.136-1.361c-.477-.613-1.157-.885-2.314.136l-1.634,1.361-1.7.885.408.817.34-.136.681,1.293c.545,1.021.34,1.293,0,1.5-.408.2-.681.136-1.225-.885l-.681-1.293.34-.136-.408-.817-.136.068-1.634.817-4.357,1.089H85.685v.885h.477v1.634l-1.7-2.451H82.554v-.068l-4.016-.885h0l-1.5-.681-.408.817.34.136-1.157,1.089c-.272.272-.477.545-.613.681h0a2.539,2.539,0,0,0,.136-.817l.136-1.634.34.136.34-.817-2.246-1.021-.408.817.34.136v4.289l1.157.545,3.131-2.791.272.136v-.068l.34.068-.613,2.859-.408-.068-.2.885,4.016.885.34-1.5-1.157-.272-.136.613-1.089-.2.272-1.089,1.225.272.2-.885L79.9,253.3l.2-.953,1.089.2-.136.613,1.157.272.272-1.293v.749h.408l.068,3h-.408v.885h2.11v-.885h-.545v-1.7l1.77,2.587h1.5l-.068-3.88H87.8v-.34l.272,1.157.953-.272-.2-.817.545-.136.749,2.859-.545.136.2.885,2.451-.613-.2-.885-.545.136-.749-2.859.545-.136.2.817.953-.272-.2-.885v.068l.34-.2.749,1.5a1.975,1.975,0,0,0,2.927,1.089c1.157-.613,1.43-1.566.681-3l-.749-1.5.34-.136-.2-.408.272.34.272-.272,1.906,2.246-.272.272.545.681,1.7-1.43-.545-.681-.34.272-.681-.817c.477-.408.613-.34,1.021.136a1.191,1.191,0,0,0,1.838.136c.613-.477.408-1.021.068-1.5Zm-2.859.749-.2.2-.749-.885.272-.2a.544.544,0,0,1,.885.068A.683.683,0,0,1,98.823,249.082Z" transform="translate(-50.696 -197.891)" fill="#3c3c3c"/>
  <path id="Path_91" data-name="Path 91" d="M85.206,219.593,83.3,218.3l1.293,1.974Z" transform="translate(-53.824 -188.825)" fill="#3c3c3c"/>
  <path id="Path_92" data-name="Path 92" d="M81.8,230.2l3.744-4.289,3.744-4.289,1.838-5.446,1.838-5.378-3.744,4.289-3.744,4.289-1.838,5.378Zm2.655-5.105,1.77-5.242,1.157.613,1.089.613-3.608,4.152-.681.817Z" transform="translate(-53.346 -186.43)" fill="#3c3c3c"/>
  <path id="Path_93" data-name="Path 93" d="M81.925,223.7l-.136.068-4.289.817,3.88.749Z" transform="translate(-51.973 -190.549)" fill="#3c3c3c"/>
  <path id="Path_94" data-name="Path 94" d="M81.408,189.89l.477,2.927-.408.068.136.885,2.178-.34-.136-.885-.408.068-.136-1.021c.613-.068.681.068.817.681.136.681.477,1.089,1.157,1.089h.34a.966.966,0,0,0,.817-1.225l-.068-.34-.477.068.068.2c0,.136,0,.2-.136.272q-.2,0-.2-.408a1.026,1.026,0,0,0-1.021-.817,1.047,1.047,0,0,0,.817-1.157c-.136-.749-.545-1.361-2.042-1.089l-2.178.34.136.885Zm1.7-.272c.408-.068.681.068.681.477.068.34-.136.613-.545.681l-.272.068-.2-1.157Z" transform="translate(-53.09 -179.407)" fill="#3c3c3c"/>
  <path id="Path_95" data-name="Path 95" d="M76.981,191.23l.2.613.749,2.178-.408.136.34.817,2.11-.749v-.068l-.272-.749-.408.136-.953-2.791.34-.136-.272-.817-2.11.749.272.817Z" transform="translate(-51.59 -179.725)" fill="#3c3c3c"/>
  <path id="Path_96" data-name="Path 96" d="M70.713,194.024l1.43,2.587-.34.2v.068l.408.749,1.906-1.021-.408-.817-.34.2-.477-.953.477-.272a1.6,1.6,0,0,0,1.021-1.906c0-.068-.068-.068-.068-.136-.408-.681-.953-1.157-2.314-.408L70.1,193.411l.408.817Zm1.5-.817a.517.517,0,0,1,.817.2c.2.34.068.613-.34.817l-.272.136-.545-1.021Z" transform="translate(-49.61 -180.409)" fill="#3c3c3c"/>
  <path id="Path_97" data-name="Path 97" d="M72.348,223.477h.2V223H71.4v.545h.2l-.136.613a3.512,3.512,0,0,0-.136.749h0a4.075,4.075,0,0,0-.136-.817L70.919,223H70.17l-.2.885c-.068.408-.2.885-.2,1.021h0a4.075,4.075,0,0,0-.136-.817l-.136-.613h.2V223H68.4v.545h.2l.545,2.246H70.1l.272-.953c0-.136.068-.34.068-.477h0c0,.136.068.34.068.477l.272.953h.953Z" transform="translate(-49.067 -190.325)" fill="#3c3c3c"/>
  <path id="Path_98" data-name="Path 98" d="M68.04,198.776c.2.2-.068.477-.2.613-.2.2-.749.477-1.089.068l-.953.817,1.089,1.293.885-.749-.272-.477a1.782,1.782,0,0,0,1.5-.477,1.757,1.757,0,0,0,.681-1.838,1.424,1.424,0,0,0-.272-.408c-1.021-1.225-3,.681-3.4.136a.52.52,0,0,1,.136-.613.783.783,0,0,1,1.157,0l.953-.749L67.155,195.1l-.885.749.34.477a1.4,1.4,0,0,0-1.5.408,1.568,1.568,0,0,0-.272,2.178C65.862,200.274,67.7,198.367,68.04,198.776Z" transform="translate(-47.823 -181.417)" fill="#3c3c3c"/>
  <path id="Path_99" data-name="Path 99" d="M69.329,247.393,67.7,246.1l-.545.681.34.272-1.906,2.383-.34-.272-.545.681,1.634,1.293c1.293,1.021,2.587.953,3.54-.272A2.412,2.412,0,0,0,69.329,247.393Zm-.681,2.451c-.545.681-1.157,1.021-1.77.545l-.2-.136,1.838-2.314.2.136C69.329,248.551,69.125,249.3,68.648,249.844Z" transform="translate(-47.886 -197.7)" fill="#3c3c3c"/>
  <path id="Path_100" data-name="Path 100" d="M81.22,234.94a18.72,18.72,0,1,0,0-37.44,17.208,17.208,0,0,0-1.906.068A18.735,18.735,0,0,0,81.22,234.94Zm0-35.126A16.406,16.406,0,1,1,64.814,216.22,16.414,16.414,0,0,1,81.22,199.814Z" transform="translate(-47.184 -182.184)" fill="#3c3c3c"/>
  <path id="Path_101" data-name="Path 101" d="M64.758,243.442,63.125,241.4l-.681.545.136.2-2.927,1.089-.272-.34-.681.545,1.361,1.7.681-.545-.34-.408.477-.2.885,1.089-.272.408-.408-.545-.681.545,1.7,2.11.681-.545-.272-.34Zm-3.063.272,1.43-.545-.885,1.293Z" transform="translate(-45.97 -196.2)" fill="#3c3c3c"/>
  <path id="Path_102" data-name="Path 102" d="M74.036,175a34.036,34.036,0,1,0,34.036,34.036A34.049,34.049,0,0,0,74.036,175Zm0,60.449c-.817,0-1.634-.068-2.383-.136a26.181,26.181,0,1,1,2.383.136Zm30.429-37.985-4.9,1.77a32.277,32.277,0,0,0-1.634-3.472l4.493-2.587A24.767,24.767,0,0,1,104.465,197.464Zm-5.786-9.734-3.948,3.336a20.126,20.126,0,0,0-2.723-2.655l3.336-3.948A30.181,30.181,0,0,1,98.679,187.73ZM89.9,180.582l-2.587,4.493a27.119,27.119,0,0,0-3.472-1.634l1.77-4.9A41.472,41.472,0,0,1,89.9,180.582Zm-27.433-1.974,1.77,4.9a32.275,32.275,0,0,0-3.472,1.634l-2.587-4.493A24.767,24.767,0,0,1,62.464,178.608Zm-9.734,5.786,3.336,3.948A24.439,24.439,0,0,0,53.41,191l-3.948-3.336A37,37,0,0,1,52.73,184.394Zm-7.148,8.781,4.493,2.587a27.12,27.12,0,0,0-1.634,3.472l-4.9-1.77A41.478,41.478,0,0,1,45.582,193.175Zm-1.974,27.433,4.9-1.77a32.277,32.277,0,0,0,1.634,3.472L45.65,224.9A24.767,24.767,0,0,1,43.608,220.609Zm5.786,9.734,3.948-3.336a20.126,20.126,0,0,0,2.723,2.655l-3.336,3.948A30.176,30.176,0,0,1,49.394,230.343Zm8.781,7.148L60.762,233a27.117,27.117,0,0,0,3.472,1.634l-1.77,4.9A41.475,41.475,0,0,1,58.175,237.491Zm27.433,1.974-1.77-4.9a32.278,32.278,0,0,0,3.472-1.634l2.587,4.493A24.768,24.768,0,0,1,85.609,239.465Zm9.734-5.786-3.336-3.948a20.125,20.125,0,0,0,2.655-2.723l3.948,3.336A30.181,30.181,0,0,1,95.343,233.679Zm7.148-8.781L98,222.311a27.12,27.12,0,0,0,1.634-3.472l4.9,1.77A41.482,41.482,0,0,1,102.491,224.9Z" transform="translate(-40 -175)" fill="#3c3c3c"/>
</svg>
