<svg id="brand-5" xmlns="http://www.w3.org/2000/svg" width="68.073" height="62.014" viewBox="0 0 68.073 62.014">
  <path id="Path_103" data-name="Path 103" d="M123.414,335.718l1.225-1.5,2.042.136-1.089-1.7.817-1.77-1.974.477-1.5-1.361-.136,1.974L121.1,333l1.838.749Z" transform="translate(-65.893 -319.381)" fill="#3c3c3c"/>
  <rect id="Rectangle_54" data-name="Rectangle 54" width="0.34" height="0.545" transform="translate(34.921 28.795)" fill="#3c3c3c"/>
  <path id="Path_104" data-name="Path 104" d="M130.4,347.24l-.272,1.974,1.77-.953,1.77.817-.408-1.906,1.361-1.5-1.974-.2-.953-1.77-.817,1.838-1.974.408Z" transform="translate(-68.383 -323.755)" fill="#3c3c3c"/>
  <rect id="Rectangle_55" data-name="Rectangle 55" width="0.34" height="0.545" transform="translate(32.198 28.795)" fill="#3c3c3c"/>
  <rect id="Rectangle_56" data-name="Rectangle 56" width="0.408" height="0.545" transform="matrix(0.5, -0.866, 0.866, 0.5, 34.369, 24.935)" fill="#3c3c3c"/>
  <path id="Path_105" data-name="Path 105" d="M102.4,379.318c2.723-10.415-1.089-13.751-1.089-13.751l-1.021-3.267-.34.068-.272.681.749,2.859.272,1.634-.953.545h0L78.238,373.94l-21.443-5.718h0l-.953-.545.272-1.634.749-2.859-.272-.681-.34-.068L55.229,365.7s-3.812,3.336-1.089,13.751l.2-.34-.2-.34.2-.34-.2-.408.2-.34-.136-.408.2-.34-.136-.408.2-.34-.136-.408.2-.34-.136-.408.272-.34-.136-.408.2-.34.817-3.063.681-.477h0l17.971,4.765-1.906.545h0l-1.906.545-.477,1.225,1.021.817,7.352-1.974,7.352,1.974,1.021-.817-.477-1.225L84.3,375.71h0l-1.906-.545,17.971-4.765h0l.681.477.817,3.063.2.34-.136.408.272.34-.136.408.2.34-.136.408.2.34-.136.408.2.34-.136.408.2.34-.2.408.2.34-.2.34Zm-48.127-6.943A.388.388,0,1,1,54,371.9.344.344,0,0,1,54.276,372.375Zm.545-1.089a.561.561,0,1,1-.408-.681A.647.647,0,0,1,54.821,371.286Zm46.834,0a.561.561,0,1,1,.681.408A.576.576,0,0,1,101.655,371.286Zm.545,1.089a.388.388,0,1,1,.477.272C102.4,372.715,102.2,372.579,102.2,372.375Z" transform="translate(-44.201 -329.693)" fill="#3c3c3c"/>
  <rect id="Rectangle_57" data-name="Rectangle 57" width="0.545" height="0.408" transform="translate(32.4 24.804) rotate(-29.98)" fill="#3c3c3c"/>
  <rect id="Rectangle_58" data-name="Rectangle 58" width="0.34" height="0.545" transform="translate(32.513 30.929) rotate(-76.012)" fill="#3c3c3c"/>
  <path id="Path_106" data-name="Path 106" d="M91.3,362l.272.477.34-.136-.272-.545Z" transform="translate(-56.379 -329.534)" fill="#3c3c3c"/>
  <rect id="Rectangle_59" data-name="Rectangle 59" width="0.545" height="0.34" transform="matrix(0.97, -0.242, 0.242, 0.97, 34.347, 30.78)" fill="#3c3c3c"/>
  <path id="Path_107" data-name="Path 107" d="M75.37,359.82a2.463,2.463,0,0,1,.953-2.178l-.2-.272h.408v-.2l.477.068v-3.608l.136-2.314h-.272a1.452,1.452,0,0,1-1.361-1.157l-.068-.613h0l-.068-.408v-.2l-.681-2.859V346a1.565,1.565,0,0,1,.136-.953l.068-.068,1.089-3.063a1.11,1.11,0,0,1,.885-.749l2.383-9.6,1.157-2.246,5.242,12.321.681,1.566.749-.817,3,16.542,3.608-.953v-7.624l-3.4-2.859.477-8.849,4.629,8.1.408,5.105v.34l.272.272,2.655,3-.272,1.225,1.225-.34.272-1.225-3.063-3.4-.408-5.31-5.582-9.8-4.152,4.561L80.475,326.6l-5.037,10.143-4.9,1.7-2.723,5.718-4.221,4.289L62.3,356.484l13,3.472v-.136Z" transform="translate(-47.12 -318.295)" fill="#3c3c3c"/>
  <path id="Path_108" data-name="Path 108" d="M52.742,334.221l1.225,1.5.477-1.974L56.282,333l-1.7-1.021L54.444,330l-1.5,1.361-1.974-.477.817,1.77-1.089,1.7Z" transform="translate(-43.416 -319.381)" fill="#3c3c3c"/>
  <path id="Path_109" data-name="Path 109" d="M64.506,323.744l.749,1.838,1.021-1.7,2.042-.068-1.293-1.5.545-1.974-1.906.749L64.03,320l.136,1.974L62.6,323.267Z" transform="translate(-47.216 -316.188)" fill="#3c3c3c"/>
  <path id="Path_110" data-name="Path 110" d="M79.3,320.118l1.566-1.293,1.906.613-.681-1.838,1.157-1.634-2.042.068L80.051,314.4l-.545,1.906-1.906.681,1.634,1.089Z" transform="translate(-52.005 -314.4)" fill="#3c3c3c"/>
  <path id="Path_111" data-name="Path 111" d="M43.653,349.078l1.77-.817,1.77.953-.272-1.974,1.5-1.293-1.974-.408-.817-1.838-.953,1.77-1.974.2,1.361,1.5Z" transform="translate(-40.862 -323.755)" fill="#3c3c3c"/>
  <path id="Path_112" data-name="Path 112" d="M135.676,361.574l-.34-1.974-1.361,1.43-1.974-.34.953,1.77-.953,1.77,1.974-.34,1.361,1.43.34-1.974,1.77-.885Z" transform="translate(-69.373 -328.831)" fill="#3c3c3c"/>
  <path id="Path_113" data-name="Path 113" d="M94.577,319.437l1.906-.613,1.566,1.293.068-2.042,1.634-1.089-1.906-.681L97.3,314.4l-1.157,1.634-2.042-.068,1.157,1.634Z" transform="translate(-57.273 -314.4)" fill="#3c3c3c"/>
  <path id="Path_114" data-name="Path 114" d="M44.493,362.459l.953-1.77-1.974.34L42.11,359.6l-.34,1.974-1.77.885,1.77.885.34,1.974,1.361-1.43,1.974.34Z" transform="translate(-40 -328.831)" fill="#3c3c3c"/>
  <path id="Path_115" data-name="Path 115" d="M82.953,355.668a.217.217,0,0,0,.2.2h0c.068,0,.068,0,.136-.068h.068c.068,0,.068,0,.136-.068h.068c.068,0,.068,0,.136-.068h.068c.068,0,.136-.068.2-.136.068,0,.136-.136.136-.2v-.477l-.2-.34h0v-.136c0-.068,0-.068-.068-.136l-.136-2.655.34-1.43v-.068l.408-.068.2,2.587h.681v.545h-.613l.068.477h0l-.136,1.974.749.34h0l-.272.477-.545-.272-.2,2.927v4.7h1.7l.068-4.7.953-3,.2.545.749-.34.272.477h0l-.817.408L88.127,359l.068,4.7h1.7V359l-.408-5.514h0l.068-.477h-.613v-.545h.681l-.068.545.2-3.131.408.068v.068l.34,1.43-.136,2.655a.238.238,0,0,0-.068.136v.136h0l-.2.34v.477c0,.068.068.136.136.2,0,.068.068.136.2.136h.068a.238.238,0,0,0,.136.068h.068a.238.238,0,0,0,.136.068h.068a.238.238,0,0,0,.136.068h0a.181.181,0,0,0,.2-.2l.068-.477h0l.068-.613v-.136l.681-3a.614.614,0,0,0-.068-.34l-1.157-3.2-.068-.068a.067.067,0,0,0-.068.068l-2.11-.749v.068h0l-.613-.136a.067.067,0,0,1-.068-.068v-.477c.068-.068.136-.136.2-.136a1.785,1.785,0,0,0,.34-.613,2.329,2.329,0,0,0,.136-.885.067.067,0,0,0-.068-.068,2.95,2.95,0,0,0-3,0h0l-.068.068a5.662,5.662,0,0,0,.136.885,2.758,2.758,0,0,0,.34.613c.068.068.136.136.2.136v.477a.067.067,0,0,1-.068.068l-.545.136h0v-.068l-.136.068.613,1.089-.477.272-.681-1.157-1.5.545-.068-.068c-.068,0-.068,0-.068.068L82.136,350.9l-.068.136a.614.614,0,0,0-.068.34l.681,3v.136l.068.545h0Zm7.965-7.42,1.021,2.859.068.136c0,.068.068.136,0,.2l-.681,3.063v.068h0l-.068.613h0l-.068.477a.067.067,0,0,1-.068.068h-.068l-.068-.068h-.2l-.068-.068h-.2l-.068-.068H90.3a.067.067,0,0,1-.068-.068.067.067,0,0,0-.068-.068.067.067,0,0,1-.068-.068v-.34h0l.2-.34h0v-.2h0v-.068l.136-2.655h0l-.34-1.43Zm-4.152,9.19-.817-.408h0l.272-.477.749.34Zm-.885-2.314.545.136-.2.953-.068-.068-.34-.2h-.068Zm-.068-.272.068-.34c0-.068.068-.068.136-.068h0l.545.136c.068,0,.068.068.068.136l-.068.34c0,.068-.068.068-.136.068h0l-.545-.136A.238.238,0,0,1,85.812,354.851Zm1.089-1.566-.272,1.157-.545-.136.272-1.021h-.068v-.545H86.9v-2.178l-.681-1.157.477-.272.545.885.545-.885.477.272-.681,1.157v2.178h.613v.545h-.068l.272,1.021-.545.136-.272-1.157Zm1.7-4.493-.2.34a.067.067,0,0,1-.068.068h-.068l-.477-.272c-.068,0-.068-.068-.068-.136l.2-.34a.067.067,0,0,1,.068-.068h.068l.477.272A.211.211,0,0,1,88.6,348.793Zm.068,3.812a.146.146,0,0,1,.136.136v.545a.146.146,0,0,1-.136.136h-.34a.146.146,0,0,1-.136-.136v-.545a.146.146,0,0,1,.136-.136Zm-.817,2.519c-.068,0-.068,0-.136-.068l-.068-.34c0-.068,0-.136.068-.136l.545-.136h0c.068,0,.068,0,.136.068l.068.34c0,.068,0,.136-.068.136l-.545.136Zm.272,1.089-.2-.953.545-.136h0l.2.817H88.6l-.34.2A.211.211,0,0,1,88.127,356.213Zm.885.613-.34.2H88.6c-.068,0-.068,0-.068-.068l-.272-.477c0-.068,0-.136.068-.136l.34-.2h.068c.068,0,.068,0,.068.068l.272.477A.238.238,0,0,1,89.012,356.825Zm.681-1.089.068.613-.545.272h0l-.272-.477h0Zm-.885-8.577.545.2-.681,1.157-.477-.272Zm-2.587-.885a3.8,3.8,0,0,1-.34-.545,3.417,3.417,0,0,1-.136-.817,3.3,3.3,0,0,1,1.361-.34,4.324,4.324,0,0,1,1.361.34,5.027,5.027,0,0,1-.136.817,1.482,1.482,0,0,1-.34.545c-.068.068-.136.136-.2.136l-.068.068v.068c-.136.068-.2.136-.34.136l-.068-.068H86.9c-.068,0-.068,0-.068.068a.52.52,0,0,1-.34-.136v-.068a.067.067,0,0,0-.068-.068C86.357,346.41,86.289,346.342,86.221,346.274Zm-.408,1.021.477-.068q.1,0,.2-.2v-.34c.136.068.2.068.34.136a.067.067,0,0,0,.068.068h.545a.067.067,0,0,0,.068-.068.52.52,0,0,0,.34-.136v.34a.217.217,0,0,0,.2.2l.477.136a1.6,1.6,0,0,1-1.361.545A1.836,1.836,0,0,1,85.812,347.3Zm-.068,1.361.477-.272h.068c.068,0,.068,0,.068.068l.2.34c0,.068,0,.136-.068.136l-.477.272h-.068c-.068,0-.068,0-.068-.068l-.2-.34A.211.211,0,0,1,85.744,348.657Zm-.2,4.084a.146.146,0,0,1,.136-.136h.34a.146.146,0,0,1,.136.136v.545a.146.146,0,0,1-.136.136h-.34a.146.146,0,0,1-.136-.136Zm.068,3.4h0l.408.2c.068,0,.068.068.068.136l-.272.477a.067.067,0,0,1-.068.068h-.068l-.34-.2c-.068,0-.068-.068-.068-.136l.272-.477A.067.067,0,0,1,85.608,356.145Zm-3.267-4.7v-.272l1.089-3,.545,2.042-.34,1.43h0l.136,2.655v.068h0v.2h0l.2.34h0v.34a.067.067,0,0,1-.068.068c-.068,0-.068,0-.068.068a.067.067,0,0,1-.068.068h-.136a.067.067,0,0,0-.068.068h-.2a.067.067,0,0,0-.068.068h-.2a.067.067,0,0,0-.068.068h-.068v0a.067.067,0,0,1-.068-.068l-.068-.477h0l-.068-.613h0v-.068Z" transform="translate(-53.409 -323.946)" fill="#3c3c3c"/>
  <path id="Path_116" data-name="Path 116" d="M88.738,343.793a3.31,3.31,0,0,1,1.5.408c.068,0,.068,0,.068-.068a.515.515,0,0,0-.068-.272,2.238,2.238,0,0,0-.408-.817,1.4,1.4,0,0,0-1.157-.545h-.136a1.483,1.483,0,0,0-1.157.545,2.238,2.238,0,0,0-.408.817c0,.068-.068.2-.068.272a.067.067,0,0,0,.068.068A6.755,6.755,0,0,1,88.738,343.793Zm1.021-.681a2.3,2.3,0,0,1,.408.817V344c0,.068,0,.068-.068,0-.068,0-.136-.068-.2-.068a.146.146,0,0,1-.136-.136Zm-2.519.817a2.3,2.3,0,0,1,.408-.817v.681a.146.146,0,0,1-.136.136c-.068,0-.136.068-.2.068H87.24Z" transform="translate(-54.974 -323.372)" fill="#3c3c3c"/>
  <path id="Path_117" data-name="Path 117" d="M94.3,374.97h.068c.068,0,.068,0,.068-.068v-.2c0-.817-.34-1.43-1.021-1.43h0v.136l.068.068a.068.068,0,1,1-.068-.068v-.136h-.2l-.068.136v.068a.068.068,0,1,1-.136,0c0-.068,0-.068.068-.068l.068-.136h-.2a.068.068,0,1,1-.136,0V373.2H91.436a1.359,1.359,0,0,0-.136.613,1.652,1.652,0,0,0,.136.681v.2l.068.068h0V374.7h.068v.068h.068V374.7h.136v.068h.068V374.7h.068v.068h.068V374.7h.068v.068h.136c.068,0,.068,0,.068-.068v-.068h.477l.2.068h.136v-.068h.068v.068h.068v-.068h.068v.068h.068v-.068h.477v.068h.068v-.068h.068v.068h.068v-.068h.068c.2.272.2.272.2.34Zm-2.859-.408a1.327,1.327,0,0,1-.068-.545v-.272a1.009,1.009,0,0,1,.953.817Z" transform="translate(-56.379 -333.173)" fill="#3c3c3c"/>
  <path id="Path_118" data-name="Path 118" d="M111.042,323.88l1.021,1.7.749-1.838,1.906-.477-1.566-1.293.136-1.974-1.634,1.089-1.906-.749.545,1.974-1.293,1.5Z" transform="translate(-62.03 -316.188)" fill="#3c3c3c"/>
  <path id="Path_119" data-name="Path 119" d="M87.545,362l-.34-.2-.2.545.34.136Z" transform="translate(-55.006 -329.534)" fill="#3c3c3c"/>
  <path id="Path_120" data-name="Path 120" d="M101.176,374.2H97.5a3.6,3.6,0,0,1,.068.885v.068Z" transform="translate(-58.358 -333.492)" fill="#3c3c3c"/>
  <path id="Path_121" data-name="Path 121" d="M83.2,374.825v.2l.068.068h.068v-.068H83.4v.068h.068v-.068h.068v.068h.068v-.068h.068v.068h.068v-.068h.068v.068h.068v-.068h.068v.068h.136l.2-.068h.477v.068l.068.068h.136V375.1h.068v.068h.068V375.1h.068v.068h.068V375.1h.068v.068h.068V375.1h.068v.068h0c.068,0,.068,0,.068-.068v-.2a2.11,2.11,0,0,0,.136-.681,1.359,1.359,0,0,0-.136-.613H84.153v.068a.068.068,0,0,1-.136,0h-.2l.068.136a.068.068,0,1,1-.068.068V373.8l-.068-.136h-.2v.136l.068.068a.068.068,0,1,1-.068-.068v-.136h0C83.472,373.4,83.2,374.077,83.2,374.825Zm3.063-.953v.272c0,.2-.068.408-.068.545h-.817A.888.888,0,0,1,86.263,373.872Z" transform="translate(-53.793 -333.301)" fill="#3c3c3c"/>
  <path id="Path_122" data-name="Path 122" d="M89.536,375a.984.984,0,0,1-.136.477v.068h.272v-.068h0A.984.984,0,0,1,89.536,375Z" transform="translate(-55.772 -333.748)" fill="#3c3c3c"/>
  <path id="Path_123" data-name="Path 123" d="M51.365,392.276,50.344,388.6H46.6v1.293h.545v4.357H46.6v1.293h2.655V394.25H48.71v-3.88h.068a4.043,4.043,0,0,0,.2,1.225l1.089,3.948h2.042l1.021-3.88c.068-.2.2-.885.272-1.293h.068v3.948h-.545v1.293h3.131v-1.293h-.545v-4.357h.545v-1.293H52.318Z" transform="translate(-42.107 -338.09)" fill="#3c3c3c"/>
  <path id="Path_124" data-name="Path 124" d="M64.572,388.2a3.4,3.4,0,0,0-3.472,3.608,3.328,3.328,0,0,0,3.54,3.676c2.246,0,3.472-1.361,3.472-3.608C68.111,389.7,67.022,388.2,64.572,388.2Zm.068,5.786c-.613,0-1.089-.817-1.089-2.11,0-1.225.408-2.11,1.021-2.11.749,0,1.089.953,1.089,2.178S65.252,393.986,64.64,393.986Z" transform="translate(-46.737 -337.962)" fill="#3c3c3c"/>
  <path id="Path_125" data-name="Path 125" d="M78.267,392.176v-2.383h.545V388.5H75.884v1.293h.545v2.11c0,1.7-.408,1.906-1.021,1.906s-1.021-.34-1.021-1.906v-2.11h.545V388.5H71.8v1.293h.545v2.451c0,2.246,1.089,3.267,3.063,3.336C77.314,395.58,78.267,394.558,78.267,392.176Z" transform="translate(-50.153 -338.058)" fill="#3c3c3c"/>
  <path id="Path_126" data-name="Path 126" d="M87.533,395.443h2.11v-5.65h.613V388.5H87.329v1.293h.681v2.383L85.559,388.5H82.7v1.293h.613v4.357H82.7v1.293h3.063V394.15h-.749v-2.519Z" transform="translate(-53.633 -338.058)" fill="#3c3c3c"/>
  <path id="Path_127" data-name="Path 127" d="M94.4,391.087h1.5v-1.293h.817v4.289H95.9v1.361h3.676v-1.361h-.817v-4.289h.817v1.293h1.5V388.5H94.4Z" transform="translate(-57.368 -338.058)" fill="#3c3c3c"/>
  <path id="Path_128" data-name="Path 128" d="M109.978,388.5h-3.744v1.293h.408l-1.361,4.357H104.6v1.293h3.131V394.15h-.749l.2-.681h2.042l.2.681h-.953v1.293h3.948V394.15h-.681Zm-2.451,3.744.613-2.11.681,2.11Z" transform="translate(-60.625 -338.058)" fill="#3c3c3c"/>
  <path id="Path_129" data-name="Path 129" d="M116.7,389.793h.613v4.289H116.7v1.361h3.267v-1.361h-.613v-4.289h.613V388.5H116.7Z" transform="translate(-64.488 -338.058)" fill="#3c3c3c"/>
  <path id="Path_130" data-name="Path 130" d="M126.861,389.793h.681v2.383l-2.451-3.676H122.3v1.293h.545v4.357H122.3v1.293h3V394.15h-.749v-2.519l2.519,3.812h2.11v-5.65h.681V388.5h-3Z" transform="translate(-66.276 -338.058)" fill="#3c3c3c"/>
  <path id="Path_131" data-name="Path 131" d="M78.87,402.81h.272v.2a.412.412,0,0,1-.408.2c-.408,0-.613-.34-.613-.817s.272-.817.613-.817c.272,0,.477.2.545.545H80.1v-1.361h-.681l-.068.34a.912.912,0,0,0-.885-.408,1.532,1.532,0,0,0-1.361,1.634,1.434,1.434,0,0,0,1.43,1.566.878.878,0,0,0,.749-.34l.136.272H80.3v-1.157h.2V402.2h-1.5v.613Z" transform="translate(-51.845 -341.953)" fill="#3c3c3c"/>
  <path id="Path_132" data-name="Path 132" d="M83.938,401.381h.272v.953c0,.749-.2.885-.477.885s-.477-.136-.477-.885v-.953h.272v-.613H82.1v.613h.272v1.089c0,1.021.477,1.5,1.43,1.5.817,0,1.293-.477,1.293-1.566v-1.089h.272V400.7H84.006v.681Z" transform="translate(-53.441 -341.953)" fill="#3c3c3c"/>
  <path id="Path_133" data-name="Path 133" d="M87,401.413h.34v1.974H87V404h1.5v-.613h-.272v-1.974H88.5V400.8H87Z" transform="translate(-55.006 -341.985)" fill="#3c3c3c"/>
  <path id="Path_134" data-name="Path 134" d="M90.961,400.8H89.6v.613h.272v1.974H89.6V404h1.361a1.523,1.523,0,0,0,1.7-1.634A1.54,1.54,0,0,0,90.961,400.8Zm0,2.587h-.2v-1.974h.2c.477,0,.681.477.681.953C91.642,402.91,91.438,403.387,90.961,403.387Z" transform="translate(-55.836 -341.985)" fill="#3c3c3c"/>
  <path id="Path_135" data-name="Path 135" d="M94.3,401.413h.34v1.974H94.3V404h2.723v-1.021h-.749v.408h-.749v-.749h.885v-.613h-.885v-.613h.749v.408h.749V400.8H94.3Z" transform="translate(-57.336 -341.985)" fill="#3c3c3c"/>
  <path id="Path_136" data-name="Path 136" d="M99.825,401.653c0-.136.2-.272.34-.272a.5.5,0,0,1,.545.545h.817v-1.157h-.749l-.068.408a1.133,1.133,0,0,0-2.042.477c0,1.157,1.7,1.021,1.7,1.361,0,.2-.2.2-.408.2s-.545-.068-.545-.477H98.6V403.9h.817l.068-.34a1.253,1.253,0,0,0,.953.408c.545,0,1.225-.272,1.225-.953C101.6,401.993,99.825,402.13,99.825,401.653Z" transform="translate(-58.709 -341.953)" fill="#3c3c3c"/>
</svg>
