<svg id="brand-2" xmlns="http://www.w3.org/2000/svg" width="68.141" height="52.893" viewBox="0 0 68.141 52.893">
  <g id="Group_43" data-name="Group 43" transform="translate(3.063 0)">
    <g id="Group_41" data-name="Group 41" transform="translate(0)">
      <path id="Path_24" data-name="Path 24" d="M183.312,65.473v-.34s0-.613.068-1.225.136-1.157.136-1.157v-.136c.2.2.545.408.885.681a9.96,9.96,0,0,1,.885.613v.613h0v1.021h.885V64.52h0c0-.2.2-1.566.272-1.838v-.068l.136-.681v-.068a11.591,11.591,0,0,1,.613-1.634l.068-.068a8.619,8.619,0,0,1,.477-.817,2.189,2.189,0,0,1,.545-.681h0l.34-.34h0c.068-.068.2-.136.272-.2l.068-.068h.34a6.321,6.321,0,0,1,.885.068l10.143,2.11V59.142l-.136.2-3-.613L198.56,57.1l1.7.34V56.419l-1.157-.2,1.157-1.361V53.628l-8.1-1.7a3.417,3.417,0,0,0-.817-.136l-.749-.136h-.136l-.749-.068a4.447,4.447,0,0,0-.953,0h-.408a1.916,1.916,0,0,0-.545.068l-.953.2a2.272,2.272,0,0,0-.817.34l-.2.068a6.959,6.959,0,0,0-1.225.749l-1.021.885a6.548,6.548,0,0,0-.817,1.021,3.259,3.259,0,0,0-.545.749l-.613,1.089a3.031,3.031,0,0,0-.408.817l-.613,1.5c-.2.613-.34,1.157-.34,1.157l-.2.749a1.484,1.484,0,0,0-.068.408l-.34,2.042L179.5,65.4v.2h3.812ZM195.5,53.22l2.927.613-1.361,1.634-2.927-.613Zm.885,3.2-1.43,1.634-3-.613,1.43-1.634Zm-6.739-3.267a4.966,4.966,0,0,1,.613-.885h.272l.749.136c.2.068.545.068.749.136l1.225.272-1.361,1.634-.613-.136-1.021-.136a7.793,7.793,0,0,0-1.021-.068h-.068C189.3,53.832,189.439,53.492,189.643,53.151Zm-1.7,2.042.2-.068a.25.25,0,0,0,.2-.068h.136a7.391,7.391,0,0,1,1.293,0c.613.068,1.225.2,1.225.2h.136a8.645,8.645,0,0,0-.681.817,5.247,5.247,0,0,0-.613.885,3.084,3.084,0,0,0-.545-.068h-.545c-.068,0-.2.068-.272.068l-.2.136a1.2,1.2,0,0,0-.34.272.238.238,0,0,1-.136.068,10.518,10.518,0,0,1-.272-1.021,6.626,6.626,0,0,1-.068-1.089.067.067,0,0,0,.068-.068A.381.381,0,0,0,187.941,55.194Zm-2.655-1.77h0c.068-.068.545-.34,1.021-.613l.2-.136a2.419,2.419,0,0,1,.613-.272l.613-.136a4.5,4.5,0,0,0-.34,1.021,5.5,5.5,0,0,0-.068,1.021,1.488,1.488,0,0,0-.34.2,2.548,2.548,0,0,0-.681.408,3.506,3.506,0,0,0-1.021.953h0a3.588,3.588,0,0,1-.34-1.021,7.7,7.7,0,0,1-.272-1.021A1.164,1.164,0,0,0,185.286,53.424Zm-.408,5.037c.272-.545.613-1.089.613-1.089l.068-.136c.136.272.272.613.477.953s.408.681.545.885a4.924,4.924,0,0,1-.272.477h0a6.686,6.686,0,0,0-.681,1.974h0v.136a9.7,9.7,0,0,0-.817-.749,8.16,8.16,0,0,1-.749-.817,5.3,5.3,0,0,0,.2-.613C184.4,59.55,184.605,59.006,184.878,58.461Zm-2.791-.817a6.3,6.3,0,0,1,.34-.681l.477-.817c.068-.136.136-.2.136-.272h0a.067.067,0,0,1,.068-.068c.136.272.34.613.545.953s.408.681.545.885l-.272.408a3.784,3.784,0,0,0-.272.545l-.477,1.157a2.86,2.86,0,0,1-.136.34v.068l-.749-.749c-.272-.272-.477-.613-.681-.817Zm-1.566,5.65.34-2.042a2.948,2.948,0,0,1,.068-.34l.068-.136a4.318,4.318,0,0,0,.817.681c.34.272.613.477.885.681l-.136.885a3.052,3.052,0,0,0-.068.749l-.068,1.021v.136c-.272-.136-.613-.34-.953-.545s-.681-.408-.953-.545Z" transform="translate(-179.5 -51.314)" fill="#3c3c3c"/>
      <path id="Path_25" data-name="Path 25" d="M240.621,58.892l-.885.2v.885l9.734-1.974.953-.136a2.793,2.793,0,0,1,.749-.068l.068.068a.067.067,0,0,1,.068.068l.272.272h0s.272.272.545.613a4.85,4.85,0,0,1,.477.749s.2.408.408.885a5.946,5.946,0,0,1,.34.885l.2.681v.068a17.1,17.1,0,0,1,.272,1.838v.136c0,.2.068.817.068,1.361h2.655a5.079,5.079,0,0,1-.817-.477c-.34-.2-.681-.34-.953-.477a1.327,1.327,0,0,0-.068-.545,14.255,14.255,0,0,0-.34-2.178h0v-.136a7.7,7.7,0,0,1,1.021.272,8.9,8.9,0,0,1,1.021.34c.068.272.068.477.136.545v.136c.068.272.136,1.906.136,2.246v.136h1.021v-.136l-.068-1.77h0v-.136a9.99,9.99,0,0,1,.953.408c.34.136.681.34.953.477l.068.681v.613h.885v-.681l-.068-1.089c0-.34-.068-.681-.068-.885l-.2-1.157a5.721,5.721,0,0,0-.272-1.225l-.34-1.157-.681-1.7a2.627,2.627,0,0,0-.34-.681l-.613-1.021c0-.068-.068-.136-.136-.2a1.608,1.608,0,0,0-.408-.613l-.749-.953a.94.94,0,0,0-.2-.272,7.076,7.076,0,0,0-1.974-1.566h0l-.749-.408a9.391,9.391,0,0,0-1.7-.545c-.681-.068-1.361-.068-1.361-.068h-.408l-.885.068-1.225.2-8.509,1.77V54.4l.068-.2,2.927-.613-.613,2.11-2.383.477V57.19l1.5-.34Zm14.227.817a6.229,6.229,0,0,0-1.089-.068,4.932,4.932,0,0,0-.272-.477s-.272-.477-.545-.885c-.272-.34-.545-.681-.613-.749a.067.067,0,0,0-.068-.068,3.588,3.588,0,0,1,1.021-.34c.408-.068.749-.136,1.089-.2a3.076,3.076,0,0,0,.408.545s.34.545.613,1.089.477,1.089.477,1.089c0,.068.068.068.068.136A2.947,2.947,0,0,1,254.848,59.709Zm3.744-.953.068.2.477,1.566a3.491,3.491,0,0,1,.2,1.089v.136a8.946,8.946,0,0,1-1.021-.34,7.7,7.7,0,0,0-1.021-.272,5,5,0,0,0-.136-.545l-.272-1.021-.408-.885c0-.068-.068-.068-.068-.136.272,0,.681.068,1.089.068C257.912,58.688,258.32,58.688,258.592,58.756ZM254.576,54.4a8.944,8.944,0,0,1,1.021-.34c.136.136.272.2.34.34l.068.068a.067.067,0,0,0,.068.068l.817,1.021a1.1,1.1,0,0,1,.272.477c.068.068.068.136.136.2l.272.477h-1.089a4.12,4.12,0,0,0-1.021.136h0c-.068-.068-.068-.136-.136-.2l-.2-.2a6.036,6.036,0,0,0-.681-.817l-.681-.545-.068-.068a.238.238,0,0,0-.136-.068A3.732,3.732,0,0,1,254.576,54.4Zm-4.833-1.293c.136-.34.272-.749.408-1.021h.613s.613,0,1.225.068c.613.136,1.089.272,1.293.34l.068.068.136.068a3.425,3.425,0,0,0-.885.681,3.61,3.61,0,0,0-.681.817h-1.5l-.681.068a.826.826,0,0,0-.34.068h-.136C249.471,53.855,249.607,53.446,249.743,53.106Zm-1.021,2.178.613-.136a6.478,6.478,0,0,1,1.225-.136h.885a3.839,3.839,0,0,1,.477.068h.068c.068,0,.068.068.136.068a2.213,2.213,0,0,0-.885.885l-.408.817a3.665,3.665,0,0,0-.545.068s-.477.068-1.021.136l-1.225.272Zm-3.744-2.246,2.791-.545h.136l-.613,2.11-2.927.613Zm-1.5,3.336,3-.613-.613,2.042-3,.613Z" transform="translate(-198.688 -51.2)" fill="#3c3c3c"/>
      <path id="Path_26" data-name="Path 26" d="M213.557,65.615V58.263l2.11,1.089v2.859l-2.11-1.089V63.3l2.11,1.089v1.089h1.566V63.64l1.43.749v1.225h1.566V63.777l1.43.749v1.089h1.566v-1.77l1.43.749v1.021h1.566V63.777l2.11,1.089v.749h.885V52.885a.739.739,0,0,0-.272-.613,1.014,1.014,0,0,0-.613-.272H213.285a.739.739,0,0,0-.613.272,1.014,1.014,0,0,0-.272.613v12.8h1.157Zm12.73-10.551v-1.43l2.11,1.089v2.859l-2.11-1.089Zm0,3.608,2.11,1.089v2.859l-2.11-1.089V58.671Zm-3-3.608v-1.43l1.43.749V57.31l-1.5-.749v-1.5Zm0,3.608,1.43.749v2.927l-1.43-.749Zm-3.063-3.54v-1.5l1.43.749v2.859l-1.43-.749Zm0,3.54,1.43.749v2.927l-1.5-.749v-1.43Zm-1.566,2.246v1.5l-1.43-.749v-3l1.43.749Zm-1.43-5.786v-1.5l1.5.749V57.31l-1.5-.749Zm-3.676-2.178h0v.34l2.11,1.089V57.31l-2.11-1.089V52.953Z" transform="translate(-190.004 -51.455)" fill="#3c3c3c"/>
    </g>
    <g id="Group_42" data-name="Group 42" transform="translate(0 38.529)">
      <path id="Path_27" data-name="Path 27" d="M179.5,108v.2l.136,1.974.34,2.042a1.9,1.9,0,0,1,.068.408l.2.749a9.994,9.994,0,0,0,.34,1.157l.613,1.5a9.088,9.088,0,0,0,.408.817l.613,1.089a3.258,3.258,0,0,0,.545.749s.408.545.817,1.021l1.021.885a4.256,4.256,0,0,0,1.225.749l.2.068a4.164,4.164,0,0,0,.817.34l.953.2c.272,0,.408.068.545.068h1.361l.749-.068h.136l.749-.136c.272-.068.545-.068.817-.136l8.1-1.634v-1.157L199.1,117.53l1.157-.2V116.3l-1.7.34-1.361-1.634,3-.613.136.2v-1.089l-10.143,2.11a7.01,7.01,0,0,1-.885.068h-.34l-.068-.068a.94.94,0,0,0-.272-.2h0l-.34-.34h0l-.545-.681a8.618,8.618,0,0,1-.477-.817.067.067,0,0,0-.068-.068c-.136-.272-.545-1.43-.613-1.634v-.068l-.136-.681v-.068c-.068-.272-.272-1.634-.272-1.838h0V108.2h-.885v1.021h0v.613a5.244,5.244,0,0,0-.885.613,10.009,10.009,0,0,0-.885.681V111s-.068-.613-.136-1.157c-.068-.613-.068-1.225-.068-1.225v-.34H179.5Zm14.568,10.551,2.927-.613,1.361,1.634-2.859.681Zm-.681-.885-1.43-1.634,3-.613,1.43,1.634Zm-4.221,1.7h.068c.068,0,.545-.068,1.021-.068l1.021-.136.613-.136,1.361,1.634-1.225.272a3.512,3.512,0,0,1-.749.136l-.749.136h-.272a9.959,9.959,0,0,1-.613-.885C189.439,119.981,189.3,119.64,189.166,119.368Zm-1.566-1.293a.067.067,0,0,1-.068-.068,5.856,5.856,0,0,1,.068-1.089,3.686,3.686,0,0,1,.272-1.021c.068,0,.068.068.136.068a1.2,1.2,0,0,0,.34.272l.2.136c.068.068.136.068.272.068h.545a2.55,2.55,0,0,0,.545-.068c.136.272.408.545.613.885.272.272.477.613.681.817h-.136s-.613.136-1.225.2a3.719,3.719,0,0,1-1.293,0h-.136c-.068,0-.136-.068-.2-.068l-.2-.068A.45.45,0,0,1,187.6,118.075Zm-2.859,1.43a7.7,7.7,0,0,1,.272-1.021,8.946,8.946,0,0,0,.34-1.021h0a7.63,7.63,0,0,0,1.021.953,2.548,2.548,0,0,0,.681.408c.136.068.2.136.34.2a5.5,5.5,0,0,0,.068,1.021,4.5,4.5,0,0,0,.34,1.021l-.613-.136a2.417,2.417,0,0,1-.613-.272l-.2-.136a6.058,6.058,0,0,1-1.021-.613h0Q185.15,119.913,184.742,119.5Zm-.34-5.65a2.724,2.724,0,0,1-.2-.613c.2-.2.477-.545.749-.817a8.159,8.159,0,0,1,.817-.749v.136h0a8.229,8.229,0,0,0,.681,1.974h0a4.925,4.925,0,0,1,.272.477,10.081,10.081,0,0,0-.545.885c-.2.34-.34.681-.477.953l-.068-.136s-.34-.545-.613-1.089A2.469,2.469,0,0,1,184.4,113.854Zm-2.723,1.021c.2-.2.408-.545.681-.817l.749-.749v.068a.687.687,0,0,0,.136.34l.477,1.157a3.788,3.788,0,0,0,.272.545l.272.408c-.136.272-.34.545-.545.885s-.408.681-.545.953l-.068-.068h0c-.068-.068-.068-.2-.136-.272l-.477-.817a6.3,6.3,0,0,1-.34-.681Zm-1.225-5.31c.272-.136.613-.408.953-.545.34-.2.681-.408.953-.545v.136l.068,1.021a2.792,2.792,0,0,0,.068.749l.136.885c-.2.2-.545.408-.885.681s-.613.477-.817.681l-.068-.136a1.385,1.385,0,0,1-.068-.34l-.34-2.042Z" transform="translate(-179.5 -107.864)" fill="#3c3c3c"/>
      <path id="Path_28" data-name="Path 28" d="M241.4,116.577l-1.5-.34v1.021l2.383.477.613,2.11-2.927-.613-.068-.2v1.157l8.509,1.77,1.225.2.885.068h.408s.681,0,1.361-.068a5.945,5.945,0,0,0,1.7-.545l.749-.408h0a7.076,7.076,0,0,0,1.974-1.566.94.94,0,0,0,.2-.272l.749-.953.408-.613c.068-.068.068-.136.136-.2l.613-1.021a2.627,2.627,0,0,0,.34-.681l.681-1.7.34-1.157a6.756,6.756,0,0,0,.272-1.225l.2-1.157a3.071,3.071,0,0,0,.068-.885l.068-1.089V108h-.885v.613l-.068.681c-.272.136-.613.272-.953.477-.34.136-.681.272-.953.408v-.136h0l.068-1.77v-.136h-1.021v.136c0,.34-.136,1.974-.136,2.246v.136a3.064,3.064,0,0,1-.136.545,8.943,8.943,0,0,0-1.021.34c-.408.136-.749.2-1.021.272v-.136h0a8.068,8.068,0,0,0,.34-2.178c0-.136.068-.34.068-.545.272-.136.613-.272.953-.477a8.685,8.685,0,0,0,.817-.477H254.2a7.441,7.441,0,0,1-.068,1.361v.136c0,.272-.272,1.566-.272,1.838v.068l-.2.681a5.942,5.942,0,0,1-.34.885c-.2.477-.408.885-.408.885a4.849,4.849,0,0,1-.477.749,1.65,1.65,0,0,1-.545.613h0l-.272.272a.067.067,0,0,0-.068.068l-.068.068a2.793,2.793,0,0,1-.749-.068l-.953-.136-9.734-1.974v.885l.885.2Zm14.568-3.063c0,.068,0,.068-.068.136,0,0-.2.545-.477,1.089s-.613,1.089-.613,1.089a2.351,2.351,0,0,1-.408.545,3.742,3.742,0,0,1-1.089-.2,3.588,3.588,0,0,1-1.021-.34l.068-.068c.068-.068.34-.408.613-.749a6.083,6.083,0,0,0,.545-.885,4.921,4.921,0,0,0,.272-.477,6.627,6.627,0,0,0,1.089-.068C255.284,113.582,255.693,113.514,255.965,113.514Zm1.634,1.225a6.229,6.229,0,0,1-1.089.068c0-.068,0-.068.068-.136l.408-.885.272-1.021.136-.545a7.7,7.7,0,0,0,1.021-.272c.34-.136.749-.2,1.021-.34v.136a7.918,7.918,0,0,1-.2,1.089l-.477,1.566-.068.2C258.416,114.671,258.007,114.671,257.6,114.739Zm-3.88,3.812a.211.211,0,0,1,.136-.068l.068-.068.681-.545.681-.817.2-.2c.068-.068.136-.136.136-.2h0c.272.068.681.068,1.021.136h1.089l-.272.477c0,.068-.068.136-.136.2-.068.136-.2.34-.272.477l-.817,1.021-.068.068-.068.068-.34.34a8.944,8.944,0,0,1-1.021-.34A7.862,7.862,0,0,0,253.719,118.551Zm-4.221.681h.136a1.191,1.191,0,0,1,.34.068l.681.068a3.8,3.8,0,0,0,.885,0h.613a3.293,3.293,0,0,0,.681.817,7.705,7.705,0,0,0,.885.681l-.136.068a.067.067,0,0,0-.068.068c-.2.068-.681.2-1.293.34-.613.068-1.225.068-1.225.068h-.613a7.926,7.926,0,0,1-.408-1.021A4.6,4.6,0,0,1,249.5,119.232Zm-1.293-3.2,1.225.272a4.707,4.707,0,0,0,1.021.136,3.665,3.665,0,0,0,.545.068l.408.817a1.856,1.856,0,0,0,.885.885c-.068,0-.068.068-.136.068h-.068a3.838,3.838,0,0,1-.477.068h-.885l-1.225-.136-.613-.136Zm-3.744,2.178,2.927.613.613,2.11h-.136l-2.791-.545Zm-1.5-3.268,3,.613.613,2.042-3-.613Z" transform="translate(-198.784 -107.864)" fill="#3c3c3c"/>
      <path id="Path_29" data-name="Path 29" d="M212.8,107.936v12.8a.739.739,0,0,0,.272.613,1.014,1.014,0,0,0,.613.272h15.044a.739.739,0,0,0,.613-.272,1.014,1.014,0,0,0,.272-.613v-12.8h-.885v.681l-2.11,1.089v-1.77h-1.566v1.089l-1.43.749v-1.838h-1.566v1.089l-1.43.749v-1.838h-1.566v1.089l-1.43.749v-1.838h-1.566v1.089l-2.11,1.089v2.178l2.11-1.089v2.859l-2.11,1.089V107.8H212.8Zm13.615,9.054,2.11-1.089v2.859l-2.11,1.089V116.99Zm0-3.608v-1.43l2.11-1.089v2.859l-2.11,1.089Zm-3,3.608,1.5-.749v2.927l-1.43.749V116.99Zm0-5.037,1.43-.749v2.927l-1.43.749Zm-3.063,5.037,1.43-.749V119.1l-1.43.749V116.99Zm0-3.608v-1.43l1.5-.749v2.927l-1.43.749Zm-1.566.681-1.43.749v-2.859l1.43-.749v2.859Zm-1.43,2.927,1.5-.749v2.927l-1.5.749V116.99Zm-3.676,2.927V117.4l2.11-1.089v2.927l-2.11,1.089v.34h0Z" transform="translate(-190.132 -107.8)" fill="#3c3c3c"/>
    </g>
  </g>
  <g id="Group_46" data-name="Group 46" transform="translate(0 15.929)">
    <g id="Group_44" data-name="Group 44">
      <path id="Path_30" data-name="Path 30" d="M183.373,82.088a5.236,5.236,0,0,1-3.88,1.77A4.235,4.235,0,0,1,175,79.3c0-2.927,2.246-4.7,3.88-4.7a2.438,2.438,0,0,1,1.974.885l.272-.749h2.042v3.608h-2.314c-.068-.817-.477-1.634-1.361-1.634-.953,0-1.5,1.157-1.5,2.519,0,1.293.681,2.383,1.838,2.383,1.089,0,1.906-1.157,2.042-1.225Z" transform="translate(-175 -74.6)" fill="#3c3c3c"/>
      <path id="Path_31" data-name="Path 31" d="M192.116,74.8v1.7h-.681v5.582h1.634V80.45h2.178v3.336H188.1v-1.7h.681V76.5H188.1V74.8Z" transform="translate(-179.182 -74.664)" fill="#3c3c3c"/>
      <path id="Path_32" data-name="Path 32" d="M203.821,74.8v1.7H203v5.582h.817v1.7H199.6v-1.7h.817V76.5H199.6V74.8Z" transform="translate(-182.854 -74.664)" fill="#3c3c3c"/>
      <path id="Path_33" data-name="Path 33" d="M215.649,77.146c-.136.545-.272,1.43-.34,1.7l-1.361,4.969h-2.655l-1.43-5.105a11.607,11.607,0,0,1-.272-1.566h-.068v5.037h.749v1.634H206.8V82.184h.681v-5.65H206.8V74.9h4.833l1.293,4.765,1.225-4.765h4.9v1.634h-.681v5.65h.681v1.634h-4.016V82.184h.749V77.9l-.136-.749Z" transform="translate(-185.153 -74.696)" fill="#3c3c3c"/>
      <path id="Path_34" data-name="Path 34" d="M225.7,82.084h.749v-5.65H225.7V74.8h4.765c2.11,0,3.131.817,3.131,2.178,0,1.089-.272,1.634-1.225,1.974a2.152,2.152,0,0,1,1.7,2.178c0,1.838-1.021,2.587-3.472,2.587h-4.833V82.084Zm3.4-3.676h.749c.681,0,.885-.34.885-.953s-.34-.953-.817-.953H229.1Zm1.021,3.676a1.126,1.126,0,0,0-.068-2.246H229.1v2.246Z" transform="translate(-191.187 -74.664)" fill="#3c3c3c"/>
      <path id="Path_35" data-name="Path 35" d="M242.921,74.8v1.7H242.1v5.582h.817v1.7H238.7v-1.7h.817V76.5H238.7V74.8Z" transform="translate(-195.338 -74.664)" fill="#3c3c3c"/>
      <path id="Path_36" data-name="Path 36" d="M254.786,76.534v7.284h-2.723l-3.267-4.9v3.2h.953v1.7H245.8V82.184h.749v-5.65H245.8V74.9h3.676l3.131,4.7V76.534h-.885V74.9h3.88v1.634h-.817Z" transform="translate(-197.604 -74.696)" fill="#3c3c3c"/>
      <path id="Path_37" data-name="Path 37" d="M267.058,82.937a2.447,2.447,0,0,1-2.042.953C262.77,83.89,261,82.12,261,79.4c0-2.791,1.906-4.7,3.948-4.7a2.76,2.76,0,0,1,2.519,1.089l.272-.953h1.906V78.58h-2.314c-.068-1.021-.681-1.634-1.43-1.634-1.021,0-1.77,1.157-1.77,2.383,0,1.293.613,2.383,1.77,2.383a1.212,1.212,0,0,0,1.225-.613v-.545h-.749V79.193H270.6v1.361h-.545v3.2h-2.587Z" transform="translate(-202.457 -74.632)" fill="#3c3c3c"/>
    </g>
    <g id="Group_45" data-name="Group 45" transform="translate(0 12.253)">
      <path id="Path_38" data-name="Path 38" d="M181.467,92.7v2.383h-1.838V94.13h-1.7v1.5h2.042v1.43h-2.042v1.77h1.7V97.805h1.838v2.451H175v-1.43h.681V94.2H175v-1.43h6.467Z" transform="translate(-175 -92.632)" fill="#3c3c3c"/>
      <path id="Path_39" data-name="Path 39" d="M192.96,99.643a1.554,1.554,0,0,1-1.634,1.7,1.656,1.656,0,0,1-1.634-1.157,3.314,3.314,0,0,1-.817.068c-2.178,0-3.676-1.293-3.676-3.812a3.5,3.5,0,0,1,3.608-3.744c2.519,0,3.676,1.5,3.676,3.812a3.582,3.582,0,0,1-.885,2.655c.068.34.2.681.477.681.2,0,.2-.272.2-.477v-.34h.681v.613Zm-2.927-2.723v-.408c0-1.225-.477-2.246-1.293-2.246-.613,0-1.225.885-1.225,2.178a1.885,1.885,0,0,0,.068.613,1.65,1.65,0,0,1,1.293-.545A1.849,1.849,0,0,1,190.033,96.921Zm-.613,1.43c-.068-.545-.2-.885-.545-.885s-.545.34-.749.817a1.093,1.093,0,0,0,.749.34A1.34,1.34,0,0,0,189.421,98.35Z" transform="translate(-178.257 -92.632)" fill="#3c3c3c"/>
      <path id="Path_40" data-name="Path 40" d="M200.4,92.7v1.361h-.545v2.314c0,1.7.408,2.11,1.089,2.11s1.089-.272,1.089-2.11V94.13h-.613V92.7h3.2v1.361h-.613v2.587c0,2.519-1.089,3.676-3.063,3.676-2.178-.068-3.336-1.225-3.336-3.608V94.061H197V92.7Z" transform="translate(-182.024 -92.632)" fill="#3c3c3c"/>
      <path id="Path_41" data-name="Path 41" d="M212.34,92.7v1.43h-.681v4.629h.681v1.43H208.8v-1.43h.681V94.13H208.8V92.7Z" transform="translate(-185.791 -92.632)" fill="#3c3c3c"/>
      <path id="Path_42" data-name="Path 42" d="M218.272,92.668c2.519,0,2.927,1.089,2.927,2.314,0,1.43-1.293,2.11-2.791,2.11h-.817v1.634h.681v1.43H214.8v-1.43h.613v-4.7H214.8V92.6h3.472Zm-.681,3.267h.477a.9.9,0,0,0,1.021-.885c0-.613-.34-.953-1.021-.953h-.545v1.838Z" transform="translate(-187.707 -92.6)" fill="#3c3c3c"/>
      <path id="Path_43" data-name="Path 43" d="M232.256,94.606a6.308,6.308,0,0,1-.34,1.43l-1.157,4.152h-2.246L227.287,95.9a5.216,5.216,0,0,1-.2-1.361h-.068v4.221h.613v1.361H224.7V98.758h.545v-4.7H224.7V92.7h4.084l1.089,4.016,1.021-4.016h4.084v1.361h-.613v4.7h.613v1.361h-3.4V98.758h.613V95.151l.068-.545Z" transform="translate(-190.868 -92.632)" fill="#3c3c3c"/>
      <path id="Path_44" data-name="Path 44" d="M247.267,92.7v2.383h-1.838V94.13h-1.7v1.5h2.042v1.43h-2.042v1.77h1.7V97.805h1.838v2.451H240.8v-1.43h.681V94.2H240.8v-1.43h6.467Z" transform="translate(-196.008 -92.632)" fill="#3c3c3c"/>
      <path id="Path_45" data-name="Path 45" d="M258.588,94.093v6.127h-2.314l-2.723-4.084v2.723h.817v1.361H251.1V98.858h.613v-4.7H251.1V92.8h3.063l2.655,3.948V94.23h-.749V92.868h3.2V94.23h-.681Z" transform="translate(-199.297 -92.664)" fill="#3c3c3c"/>
      <path id="Path_46" data-name="Path 46" d="M271.016,95.491H269.45V94.13h-.885v4.629h.885v1.43h-4.016v-1.43h.885V94.13h-.953v1.361H263.8V92.7h7.216v2.791Z" transform="translate(-203.351 -92.632)" fill="#3c3c3c"/>
    </g>
  </g>
</svg>
