<svg id="brand-6" xmlns="http://www.w3.org/2000/svg" width="68.073" height="68.073" viewBox="0 0 68.073 68.073">
  <path id="Path_198" data-name="Path 198" d="M366.61,243.943h.272a5.341,5.341,0,0,0,.953-.136,7.082,7.082,0,0,0,1.361-.545,14.578,14.578,0,0,0,1.293-.885,6.817,6.817,0,0,0,.953-1.089,4.463,4.463,0,0,0,.477-1.021,1.936,1.936,0,0,0,0-.885,1.086,1.086,0,0,0-.477-.613L368.652,237a20.9,20.9,0,0,1-4.969.885l-2.383,1.974,4.493,3.812A1.9,1.9,0,0,0,366.61,243.943Zm-.272-1.77a1.622,1.622,0,0,1,.408-.749,4.62,4.62,0,0,1,.817-.817,8.87,8.87,0,0,1,1.021-.681,9.994,9.994,0,0,1,.953-.408,2.553,2.553,0,0,1,.681-.068h.136a.576.576,0,0,1,.408.136c.068.068.068.068.068.136v.34a2.346,2.346,0,0,1-.34.749,4.687,4.687,0,0,1-.749.885,6.168,6.168,0,0,1-1.089.749,7.562,7.562,0,0,1-1.089.477,2.554,2.554,0,0,1-.681.068h-.136a.52.52,0,0,1-.34-.136.238.238,0,0,1-.068-.136A.728.728,0,0,1,366.337,242.174Z" transform="translate(-326.379 -194.795)" fill="#3c3c3c"/>
  <path id="Path_199" data-name="Path 199" d="M354.644,237.953a28.185,28.185,0,0,1-8.237-.953l-2.655,1.7a1.023,1.023,0,0,0-.477.613,1.937,1.937,0,0,0,0,.885,2.314,2.314,0,0,0,.477,1.021,4.549,4.549,0,0,0,.953,1.089,5.457,5.457,0,0,0,1.293.885,5.69,5.69,0,0,0,1.361.545,5.34,5.34,0,0,0,.953.136h.272a1.73,1.73,0,0,0,.885-.34l6.739-5.718a13.291,13.291,0,0,1-1.566.136Zm-5.854,4.7a.238.238,0,0,1-.068.136.52.52,0,0,1-.34.136h-.136a2.553,2.553,0,0,1-.681-.068,3.8,3.8,0,0,1-1.089-.477,6.17,6.17,0,0,1-1.089-.749,4.316,4.316,0,0,1-.749-.885,3.646,3.646,0,0,1-.34-.749c0-.136-.068-.272,0-.34a.067.067,0,0,1,.068-.068c.068-.068.2-.068.408-.136h.136a2.554,2.554,0,0,1,.681.068,2.387,2.387,0,0,1,.953.408,8.867,8.867,0,0,1,1.021.681,4.621,4.621,0,0,1,.817.817,2.774,2.774,0,0,1,.408.749Z" transform="translate(-320.608 -194.795)" fill="#3c3c3c"/>
  <path id="Path_200" data-name="Path 200" d="M353.694,208.518c0,.545-.068,1.021-.068,1.5a3.686,3.686,0,0,1-.408,1.7,3.315,3.315,0,0,1-.2-.477q-.1-.511-.2-1.225a10.538,10.538,0,0,1-.068-1.5,13.222,13.222,0,0,0-.136-1.634,4.958,4.958,0,0,0-.477-1.634,3.226,3.226,0,0,0-.817-1.225,2.961,2.961,0,0,0-.477-.408,1.424,1.424,0,0,0-.408-.272,2.346,2.346,0,0,0-.749-.34l-.613-.2s.136.2.34.545a7.057,7.057,0,0,1,.272.681.863.863,0,0,1,.068.408c0,.136.068.272,0,.408a1.813,1.813,0,0,1-.2.817,5.077,5.077,0,0,1-.477.817,10.006,10.006,0,0,0-.681.885c-.272.34-.545.681-.885,1.089-.272.408-.613.817-.953,1.361a7.63,7.63,0,0,0-.681,1.5.614.614,0,0,0-.068-.34,4.958,4.958,0,0,0-.477-1.634,3.226,3.226,0,0,0-.817-1.225c-.136-.136-.34-.272-.477-.408a1.424,1.424,0,0,0-.408-.272,6.629,6.629,0,0,0-.749-.34l-.613-.2s.136.2.34.545a7.055,7.055,0,0,1,.272.681.863.863,0,0,1,.068.408c0,.136.068.272,0,.408a1.813,1.813,0,0,1-.2.817,5.079,5.079,0,0,1-.477.817,10,10,0,0,0-.681.885c-.272.34-.545.681-.885,1.089-.272.408-.613.817-.953,1.361a6.961,6.961,0,0,0-.749,1.906,5.843,5.843,0,0,0-.2,1.157,8.19,8.19,0,0,0,0,1.293c.613,5.31,4.969,7.08,9.666,7.692a3.709,3.709,0,0,1-2.314-3.131V222.2c0-.2.068-.408.068-.545a2.386,2.386,0,0,1,.408-.953,2.445,2.445,0,0,1,.477-.681c.136-.2.272-.34.408-.545a1.8,1.8,0,0,0,.34-.408c.068-.136.2-.272.2-.408a.863.863,0,0,0,.068-.408v-.2a.25.25,0,0,0-.068-.2c0-.136-.068-.2-.136-.34a.745.745,0,0,0-.136-.272,1.191,1.191,0,0,1,.34.068c.068.068.2.068.34.2.068.068.136.068.2.136l.2.2a2.376,2.376,0,0,1,.408.613,1.812,1.812,0,0,1,.2.817v.136a2.517,2.517,0,0,1,.34-.749,2.444,2.444,0,0,1,.477-.681c.136-.2.272-.34.408-.545a1.8,1.8,0,0,0,.34-.408c.068-.136.2-.272.2-.408a.863.863,0,0,0,.068-.408v-.2a.25.25,0,0,0-.068-.2c0-.136-.068-.2-.136-.34-.136-.2-.136-.272-.136-.272a1.191,1.191,0,0,1,.34.068c.068.068.2.068.34.2.068.068.136.068.2.136l.2.2a2.376,2.376,0,0,1,.408.613,1.812,1.812,0,0,1,.2.817,3.315,3.315,0,0,1,.068.817,2.792,2.792,0,0,0,.068.749c0,.2.068.408.068.613a.516.516,0,0,0,.136.272c.068-.068.068-.136.136-.272a1.511,1.511,0,0,0,.068-.613,3.054,3.054,0,0,1,.068-.749,3.314,3.314,0,0,1,.068-.817l.2-.817a2.376,2.376,0,0,1,.408-.613l.2-.2c.068-.068.136-.136.2-.136a1.487,1.487,0,0,0,.34-.2,1.192,1.192,0,0,1,.34-.068.745.745,0,0,0-.136.272c-.068.068-.068.2-.136.34,0,.068-.068.136-.068.2v.2c0,.136.068.272.068.408l.2.408a1.805,1.805,0,0,0,.34.408,3.775,3.775,0,0,1,.408.545c.136.2.272.408.477.681a7.984,7.984,0,0,1,.34.749v-.136l.2-.817a2.376,2.376,0,0,1,.408-.613l.2-.2c.068-.068.136-.136.2-.136a1.488,1.488,0,0,0,.34-.2,1.191,1.191,0,0,1,.34-.068.745.745,0,0,0-.136.272c-.068.068-.068.2-.136.34,0,.068-.068.136-.068.2v.2c0,.136.068.272.068.408l.2.408a1.8,1.8,0,0,0,.34.408,3.776,3.776,0,0,1,.408.545,5.885,5.885,0,0,1,.477.681,6.637,6.637,0,0,1,.408.953,1.692,1.692,0,0,1,.068.545v.613a3.769,3.769,0,0,1-2.383,3.063c4.7-.613,9.054-2.519,9.666-7.624a8.2,8.2,0,0,0,0-1.293c-.068-.408-.136-.817-.2-1.157a10.117,10.117,0,0,0-.749-1.906,6.894,6.894,0,0,0-.953-1.361c-.272-.408-.613-.749-.885-1.089a6.219,6.219,0,0,1-.681-.885,5.081,5.081,0,0,1-.477-.817,1.812,1.812,0,0,1-.2-.817v-.408c0-.136.068-.272.068-.408a7.055,7.055,0,0,1,.272-.681c.2-.34.34-.545.34-.545l-.613.2a6.632,6.632,0,0,0-.749.34c-.136.068-.272.2-.408.272-.136.136-.34.272-.477.408a3.863,3.863,0,0,0-.817,1.225,9.331,9.331,0,0,0-.477,1.634.614.614,0,0,1-.068.34,7.63,7.63,0,0,0-.681-1.5,6.894,6.894,0,0,0-.953-1.361c-.272-.408-.613-.749-.885-1.089a6.216,6.216,0,0,1-.681-.885,5.081,5.081,0,0,1-.477-.817,1.813,1.813,0,0,1-.2-.817v-.408c0-.136.068-.272.068-.408a7.057,7.057,0,0,1,.272-.681c.2-.34.34-.545.34-.545l-.613.2a6.632,6.632,0,0,0-.749.34,1.424,1.424,0,0,0-.408.272c-.136.136-.34.272-.477.408a3.864,3.864,0,0,0-.817,1.225,9.332,9.332,0,0,0-.477,1.634A2.125,2.125,0,0,1,353.694,208.518Z" transform="translate(-319.181 -183.876)" fill="#3c3c3c"/>
  <path id="Path_201" data-name="Path 201" d="M376.817,266.389a13.633,13.633,0,0,1-1.77.681.414.414,0,0,0-.272.613.512.512,0,0,0,.477.34h.136c.613-.2,1.225-.477,1.838-.681a.5.5,0,0,0,.272-.613A.532.532,0,0,0,376.817,266.389Z" transform="translate(-330.664 -204.17)" fill="#3c3c3c"/>
  <path id="Path_202" data-name="Path 202" d="M403.994,214.936a17.4,17.4,0,0,1,.34,1.838.584.584,0,0,0,.477.408h.068a.518.518,0,0,0,.408-.545,18.648,18.648,0,0,0-.34-1.906.447.447,0,0,0-.545-.34A.436.436,0,0,0,403.994,214.936Z" transform="translate(-340.005 -187.571)" fill="#3c3c3c"/>
  <path id="Path_203" data-name="Path 203" d="M317.673,241.461a.474.474,0,1,0-.885.34c.272.613.477,1.225.749,1.77a.423.423,0,0,0,.408.272.25.25,0,0,0,.2-.068.415.415,0,0,0,.2-.613C318.15,242.618,317.878,242.073,317.673,241.461Z" transform="translate(-312.16 -196.124)" fill="#3c3c3c"/>
  <path id="Path_204" data-name="Path 204" d="M316.053,236.67a18.254,18.254,0,0,1-.477-1.838.454.454,0,0,0-.885.2c.136.613.34,1.293.477,1.906a.512.512,0,0,0,.477.34h.136A.453.453,0,0,0,316.053,236.67Z" transform="translate(-311.492 -193.989)" fill="#3c3c3c"/>
  <path id="Path_205" data-name="Path 205" d="M320.673,247.692a.5.5,0,1,0-.885.477l1.021,1.634a.485.485,0,0,0,.408.2.409.409,0,0,0,.272-.068.528.528,0,0,0,.136-.681C321.354,248.781,321.013,248.237,320.673,247.692Z" transform="translate(-313.117 -198.135)" fill="#3c3c3c"/>
  <path id="Path_206" data-name="Path 206" d="M324.7,253.424a.484.484,0,1,0-.749.613c.408.477.817,1.021,1.293,1.5.068.136.2.136.34.136s.2-.068.34-.136a.455.455,0,0,0,0-.681Z" transform="translate(-314.425 -199.986)" fill="#3c3c3c"/>
  <path id="Path_207" data-name="Path 207" d="M356.351,269.936c-.613-.068-1.293-.068-1.906-.136a.481.481,0,1,0-.136.953,17.927,17.927,0,0,0,1.906.136h0a.465.465,0,0,0,.477-.477C356.827,270.208,356.623,269.936,356.351,269.936Z" transform="translate(-324.016 -205.267)" fill="#3c3c3c"/>
  <path id="Path_208" data-name="Path 208" d="M363.383,269.894a16.731,16.731,0,0,1-1.906.136.477.477,0,0,0,0,.953h0a19.237,19.237,0,0,0,1.974-.136.436.436,0,0,0,.408-.545A.408.408,0,0,0,363.383,269.894Z" transform="translate(-326.283 -205.293)" fill="#3c3c3c"/>
  <path id="Path_209" data-name="Path 209" d="M349.542,268.868a18.247,18.247,0,0,1-1.838-.477.5.5,0,1,0-.272.953,15.6,15.6,0,0,0,1.906.477h.068a.5.5,0,0,0,.477-.408A.51.51,0,0,0,349.542,268.868Z" transform="translate(-321.837 -204.812)" fill="#3c3c3c"/>
  <path id="Path_210" data-name="Path 210" d="M314.725,229.783c-.068-.613-.136-1.225-.2-1.906a.512.512,0,1,0-1.021.068c.068.681.136,1.293.2,1.906,0,.272.2.408.477.408h.068A.385.385,0,0,0,314.725,229.783Z" transform="translate(-311.117 -191.73)" fill="#3c3c3c"/>
  <path id="Path_211" data-name="Path 211" d="M370.246,268.692l-1.838.408a.518.518,0,0,0-.408.545.584.584,0,0,0,.477.408h.068c.613-.136,1.293-.272,1.906-.408a.487.487,0,0,0,.34-.613A.447.447,0,0,0,370.246,268.692Z" transform="translate(-328.518 -204.908)" fill="#3c3c3c"/>
  <path id="Path_212" data-name="Path 212" d="M399.809,203.7a.56.56,0,0,0,.408.272.25.25,0,0,0,.2-.068.467.467,0,0,0,.2-.613,13.7,13.7,0,0,0-.953-1.7.5.5,0,0,0-.885.477A6.628,6.628,0,0,1,399.809,203.7Z" transform="translate(-338.339 -183.417)" fill="#3c3c3c"/>
  <path id="Path_213" data-name="Path 213" d="M404.994,221.745a17.208,17.208,0,0,1,.068,1.906.465.465,0,0,0,.477.477h0a.465.465,0,0,0,.477-.477,19.127,19.127,0,0,0-.068-1.974.511.511,0,0,0-.477-.477C405.13,221.268,404.926,221.472,404.994,221.745Z" transform="translate(-340.325 -189.75)" fill="#3c3c3c"/>
  <path id="Path_214" data-name="Path 214" d="M329.523,258.442a.484.484,0,0,0-.613.749,13.044,13.044,0,0,0,1.5,1.225.516.516,0,0,0,.272.136.588.588,0,0,0,.408-.2.524.524,0,0,0-.068-.681A8.43,8.43,0,0,1,329.523,258.442Z" transform="translate(-315.976 -201.601)" fill="#3c3c3c"/>
  <path id="Path_215" data-name="Path 215" d="M342.857,266.824c-.613-.2-1.157-.477-1.77-.749a.474.474,0,0,0-.34.885c.613.272,1.157.545,1.77.749h.136a.512.512,0,0,0,.477-.34A.369.369,0,0,0,342.857,266.824Z" transform="translate(-319.713 -204.061)" fill="#3c3c3c"/>
  <path id="Path_216" data-name="Path 216" d="M336.581,263.72c-.545-.34-1.089-.613-1.634-.953a.491.491,0,0,0-.545.817l1.634,1.021a.25.25,0,0,0,.2.068.423.423,0,0,0,.408-.272C336.922,264.128,336.854,263.856,336.581,263.72Z" transform="translate(-317.725 -202.999)" fill="#3c3c3c"/>
  <path id="Path_217" data-name="Path 217" d="M402.6,210.071a.512.512,0,0,0,.477.34h.136a.487.487,0,0,0,.34-.613c-.2-.613-.408-1.225-.681-1.838-.068-.272-.34-.34-.613-.272a.478.478,0,0,0-.272.613C402.193,208.846,402.4,209.458,402.6,210.071Z" transform="translate(-339.362 -185.429)" fill="#3c3c3c"/>
  <path id="Path_218" data-name="Path 218" d="M372.034,181.113c.613.2,1.225.34,1.77.545h.136a.5.5,0,0,0,.2-.953l-1.838-.613a.487.487,0,0,0-.613.34A.591.591,0,0,0,372.034,181.113Z" transform="translate(-329.693 -176.62)" fill="#3c3c3c"/>
  <path id="Path_219" data-name="Path 219" d="M378.564,183.527c.545.272,1.157.545,1.7.817a.25.25,0,0,0,.2.068.373.373,0,0,0,.408-.272.486.486,0,0,0-.2-.681c-.545-.272-1.157-.613-1.77-.885a.429.429,0,0,0-.613.2A.706.706,0,0,0,378.564,183.527Z" transform="translate(-331.798 -177.401)" fill="#3c3c3c"/>
  <path id="Path_220" data-name="Path 220" d="M365.177,179.853c.613.068,1.225.2,1.838.272h.068a.5.5,0,0,0,.477-.408c.068-.272-.136-.477-.408-.545a18.346,18.346,0,0,0-1.906-.272.518.518,0,0,0-.545.408A.659.659,0,0,0,365.177,179.853Z" transform="translate(-327.464 -176.245)" fill="#3c3c3c"/>
  <path id="Path_221" data-name="Path 221" d="M384.71,186.984c.545.34,1.021.681,1.566,1.089a.409.409,0,0,0,.272.068.588.588,0,0,0,.408-.2.516.516,0,0,0-.068-.681c-.545-.408-1.021-.749-1.566-1.089a.528.528,0,0,0-.681.136A.46.46,0,0,0,384.71,186.984Z" transform="translate(-333.792 -178.543)" fill="#3c3c3c"/>
  <path id="Path_222" data-name="Path 222" d="M396.145,197.734a.485.485,0,0,0,.408.2.409.409,0,0,0,.272-.068.528.528,0,0,0,.136-.681c-.408-.545-.749-1.021-1.157-1.566a.484.484,0,0,0-.749.613C395.4,196.713,395.8,197.257,396.145,197.734Z" transform="translate(-337.126 -181.533)" fill="#3c3c3c"/>
  <path id="Path_223" data-name="Path 223" d="M358.245,179.553h1.838a.477.477,0,0,0,0-.953h-1.906a.465.465,0,0,0-.477.477A.578.578,0,0,0,358.245,179.553Z" transform="translate(-325.229 -176.149)" fill="#3c3c3c"/>
  <path id="Path_224" data-name="Path 224" d="M391.569,192.482a.494.494,0,0,0,.681,0,.455.455,0,0,0,0-.681c-.477-.477-.953-.885-1.43-1.361a.481.481,0,1,0-.681.681C390.616,191.6,391.093,192.073,391.569,192.482Z" transform="translate(-335.545 -179.888)" fill="#3c3c3c"/>
  <path id="Path_225" data-name="Path 225" d="M316.047,210.511h.136a.512.512,0,0,0,.477-.34c.2-.613.408-1.225.613-1.77.068-.272,0-.545-.272-.613s-.545,0-.613.272c-.2.613-.477,1.225-.613,1.838A.414.414,0,0,0,316.047,210.511Z" transform="translate(-311.827 -185.461)" fill="#3c3c3c"/>
  <path id="Path_226" data-name="Path 226" d="M318.54,203.987c.068,0,.136.068.2.068a.373.373,0,0,0,.408-.272c.272-.545.613-1.089.885-1.634a.5.5,0,1,0-.885-.477c-.34.545-.613,1.157-.953,1.7C318.2,203.578,318.268,203.919,318.54,203.987Z" transform="translate(-312.618 -183.429)" fill="#3c3c3c"/>
  <path id="Path_227" data-name="Path 227" d="M322.4,198.138a.588.588,0,0,0,.408-.2,12.519,12.519,0,0,1,1.157-1.5.484.484,0,1,0-.749-.613,13.294,13.294,0,0,0-1.157,1.566.466.466,0,0,0,.136.681A.686.686,0,0,0,322.4,198.138Z" transform="translate(-313.821 -181.596)" fill="#3c3c3c"/>
  <path id="Path_228" data-name="Path 228" d="M326.869,192.838a.52.52,0,0,0,.34-.136,12.234,12.234,0,0,1,1.361-1.293.481.481,0,1,0-.681-.681,12.856,12.856,0,0,0-1.361,1.361.455.455,0,0,0,0,.681C326.664,192.77,326.732,192.838,326.869,192.838Z" transform="translate(-315.228 -179.973)" fill="#3c3c3c"/>
  <path id="Path_229" data-name="Path 229" d="M313.977,224.359a.465.465,0,0,0,.477-.477,17.834,17.834,0,0,1,.068-1.906.477.477,0,0,0-.953,0,18.479,18.479,0,0,0-.068,1.974A.455.455,0,0,0,313.977,224.359Z" transform="translate(-311.117 -189.846)" fill="#3c3c3c"/>
  <path id="Path_230" data-name="Path 230" d="M344.451,181.789h.136a17.578,17.578,0,0,1,1.77-.545.5.5,0,0,0-.272-.953l-1.838.613a.414.414,0,0,0-.272.613A.514.514,0,0,0,344.451,181.789Z" transform="translate(-320.83 -176.684)" fill="#3c3c3c"/>
  <path id="Path_231" data-name="Path 231" d="M351.245,180.119h.068a17.1,17.1,0,0,1,1.838-.272.481.481,0,0,0-.136-.953c-.681.068-1.293.2-1.906.272a.518.518,0,0,0-.408.545A.638.638,0,0,0,351.245,180.119Z" transform="translate(-322.994 -176.239)" fill="#3c3c3c"/>
  <path id="Path_232" data-name="Path 232" d="M332.183,188.241a.409.409,0,0,0,.272-.068,12.818,12.818,0,0,1,1.566-1.089.491.491,0,1,0-.545-.817,13.287,13.287,0,0,0-1.566,1.157.455.455,0,0,0-.068.681A.52.52,0,0,0,332.183,188.241Z" transform="translate(-316.934 -178.575)" fill="#3c3c3c"/>
  <path id="Path_233" data-name="Path 233" d="M338.051,184.57a.25.25,0,0,0,.2-.068,13.1,13.1,0,0,1,1.7-.817.457.457,0,1,0-.408-.817c-.613.272-1.157.545-1.77.885a.529.529,0,0,0-.2.681A.984.984,0,0,0,338.051,184.57Z" transform="translate(-318.786 -177.49)" fill="#3c3c3c"/>
  <path id="Path_234" data-name="Path 234" d="M314.52,217.385h.068a.5.5,0,0,0,.477-.408,17.409,17.409,0,0,1,.34-1.838.454.454,0,0,0-.885-.2,18.658,18.658,0,0,0-.34,1.906C314.044,217.112,314.248,217.317,314.52,217.385Z" transform="translate(-311.321 -187.637)" fill="#3c3c3c"/>
  <path id="Path_235" data-name="Path 235" d="M383.012,263.168c-.545.34-1.089.681-1.634.953a.529.529,0,0,0-.2.681.56.56,0,0,0,.408.272.25.25,0,0,0,.2-.068c.545-.34,1.157-.613,1.7-.953a.512.512,0,0,0,.136-.681C383.557,263.1,383.285,263.032,383.012,263.168Z" transform="translate(-332.707 -203.128)" fill="#3c3c3c"/>
  <path id="Path_236" data-name="Path 236" d="M401.8,241.975a.414.414,0,0,0-.613.272,13.087,13.087,0,0,1-.817,1.7.448.448,0,0,0,.2.613c.068,0,.136.068.2.068a.373.373,0,0,0,.408-.272c.272-.613.545-1.157.817-1.77A.374.374,0,0,0,401.8,241.975Z" transform="translate(-338.837 -196.366)" fill="#3c3c3c"/>
  <path id="Path_237" data-name="Path 237" d="M405.343,228.3a.593.593,0,0,0-.545.408c-.068.613-.136,1.225-.2,1.906-.068.272.136.477.408.545h.068a.584.584,0,0,0,.477-.408,18.1,18.1,0,0,0,.2-1.906A.593.593,0,0,0,405.343,228.3Z" transform="translate(-340.197 -192.017)" fill="#3c3c3c"/>
  <path id="Path_238" data-name="Path 238" d="M404.081,235.292a.487.487,0,0,0-.613.34c-.136.613-.34,1.225-.477,1.838a.487.487,0,0,0,.34.613h.136a.512.512,0,0,0,.477-.34c.2-.613.34-1.225.545-1.906A.518.518,0,0,0,404.081,235.292Z" transform="translate(-339.684 -194.244)" fill="#3c3c3c"/>
  <path id="Path_239" data-name="Path 239" d="M393.722,254.028c-.408.477-.817.953-1.293,1.43a.455.455,0,0,0,0,.681.493.493,0,0,0,.681,0c.477-.477.885-.953,1.293-1.43a.46.46,0,0,0-.068-.681A.383.383,0,0,0,393.722,254.028Z" transform="translate(-336.268 -200.183)" fill="#3c3c3c"/>
  <path id="Path_240" data-name="Path 240" d="M398.569,248.267a.528.528,0,0,0-.681.136c-.34.545-.681,1.089-1.021,1.566a.528.528,0,0,0,.136.681.409.409,0,0,0,.272.068.588.588,0,0,0,.408-.2c.34-.545.749-1.089,1.089-1.634A.549.549,0,0,0,398.569,248.267Z" transform="translate(-337.712 -198.369)" fill="#3c3c3c"/>
  <path id="Path_241" data-name="Path 241" d="M388.74,259.035l-1.43,1.225a.455.455,0,0,0-.068.681.533.533,0,0,0,.681.136c.545-.408,1.021-.817,1.5-1.225a.524.524,0,0,0,.068-.681C389.216,258.83,388.944,258.83,388.74,259.035Z" transform="translate(-334.622 -201.785)" fill="#3c3c3c"/>
  <path id="Path_242" data-name="Path 242" d="M346.271,182a29.271,29.271,0,1,0,29.271,29.271A29.313,29.313,0,0,0,346.271,182Zm0,57.521a28.25,28.25,0,1,1,28.25-28.25A28.267,28.267,0,0,1,346.271,239.521Z" transform="translate(-312.235 -177.235)" fill="#3c3c3c"/>
  <path id="Path_243" data-name="Path 243" d="M326.186,210.869a2.269,2.269,0,0,0,3.2-1.157,2.849,2.849,0,0,0,0-2.246l-1.089.34a1.334,1.334,0,0,1,.136,1.225,1.142,1.142,0,0,1-1.566.34c-.681-.34-1.089-.817-.885-1.293a.773.773,0,0,1,1.089-.272l.477-1.089-1.7-.817-.477.953.272.272a1.192,1.192,0,0,0-.817.749A2.314,2.314,0,0,0,326.186,210.869Z" transform="translate(-314.682 -184.866)" fill="#3c3c3c"/>
  <path id="Path_244" data-name="Path 244" d="M328.985,202.651l1.77,2.519-.272.34.681.545,1.293-1.7-.681-.545-.34.408-.272-.408.817-1.089.477.136-.408.477.681.545,1.634-2.11-.681-.545-.272.34-3.744-1.361-1.566,2.042.681.545Zm2.246-.2-.545.681L329.8,201.9Z" transform="translate(-315.779 -183.046)" fill="#3c3c3c"/>
  <path id="Path_245" data-name="Path 245" d="M333.885,195.689l1.77,2.383-.272.2.545.681,1.43-1.089-.545-.681-.272.2-1.566-2.11h0c.2.272.545.477.613.613l2.178,1.7,1.089-.817-1.021-2.519-.408-.817h0l.2.34,1.361,1.77-.272.2.545.681,1.7-1.293-.545-.681-.272.2-1.77-2.383.272-.2-.545-.681-2.042,1.566,1.021,2.383-2.042-1.634-2.042,1.5.545.681Z" transform="translate(-317.343 -180.236)" fill="#3c3c3c"/>
  <path id="Path_246" data-name="Path 246" d="M342.981,190.773l1.157,2.723-.34.136.34.817,1.974-.817-.34-.817-.408.136-.408-.953.477-.2c.885-.34,1.43-1.089,1.089-1.906-.272-.681-.817-1.225-2.246-.613l-1.974.817.34.817Zm1.634-.613a.558.558,0,0,1,.817.34c.136.34,0,.613-.408.749l-.272.136-.477-1.089Z" transform="translate(-320.313 -179.473)" fill="#3c3c3c"/>
  <path id="Path_247" data-name="Path 247" d="M349.613,188.593l.681,2.791-.408.136.272.885,2.11-.545-.2-.885-.408.068-.681-2.791.408-.136-.2-.817-2.178.545.2.817Z" transform="translate(-322.452 -178.927)" fill="#3c3c3c"/>
  <path id="Path_248" data-name="Path 248" d="M353.977,187.525l.2,2.927-.408.068.068.817,2.042-.136-.068-.817h-.477l-.136-1.7,1.906,2.451,1.43-.068-.272-3.812.408-.068V186.3l-2.042.136.068.885h.477l.068,1.566-1.77-2.314-1.974.136.068.817Z" transform="translate(-323.888 -178.608)" fill="#3c3c3c"/>
  <path id="Path_249" data-name="Path 249" d="M363.762,191.615a1.4,1.4,0,0,0,1.157-.272l.136.477,1.293.2.272-1.634.272.068.136-.681-2.178-.34-.136.681.408.068-.068.272a.7.7,0,0,1-.681.2c-.545-.068-.817-.681-.681-1.361s.545-1.157,1.089-1.089a.769.769,0,0,1,.613.953l1.157.2.34-1.974-1.021-.136-.2.477c-.068-.136-.272-.613-1.225-.749a2.323,2.323,0,0,0-2.451,2.11A2.189,2.189,0,0,0,363.762,191.615Z" transform="translate(-326.595 -178.818)" fill="#3c3c3c"/>
  <path id="Path_250" data-name="Path 250" d="M373.314,193.58l-.477-.272.34-.34,1.225.613-.068.477-.545-.272-.408.749,2.383,1.225.408-.749-.408-.2.681-3.948-2.314-1.157-.408.749.272.136-2.178,2.178-.408-.2-.408.749,1.906.953Zm1.5-2.246-.272,1.5-.749-.408Z" transform="translate(-329.476 -179.693)" fill="#3c3c3c"/>
  <path id="Path_251" data-name="Path 251" d="M378.545,196.4l-.545.681,1.634,1.43.545-.681-.34-.272.681-.817c.477.408.408.545,0,1.021a1.093,1.093,0,0,0,.2,1.77.9.9,0,0,0,1.43-.2l.272-.272-.34-.272-.136.136a.168.168,0,0,1-.272.068c-.068-.068,0-.2.2-.477a.95.95,0,0,0-.068-1.293,1.032,1.032,0,0,0,1.361-.136c.477-.613.681-1.225-.545-2.246L381,193.4l-.545.681.272.272-1.906,2.246Zm3.267-1.089.272.2a.582.582,0,0,1,.068.885.51.51,0,0,1-.817,0l-.2-.2Z" transform="translate(-331.711 -180.875)" fill="#3c3c3c"/>
  <path id="Path_252" data-name="Path 252" d="M386.2,199.645l.272.34-2.314,1.77-.272-.34-.681.545,2.451,3.2,1.225-.885-.749-.953-.477.408-.681-.885.885-.681.817,1.021.681-.545-.749-1.021.681-.545.681.885-.477.34.749.885,1.157-.885-2.519-3.2Z" transform="translate(-333.371 -182.694)" fill="#3c3c3c"/>
  <path id="Path_253" data-name="Path 253" d="M387.921,207.621l-.2-.408-.817.34.885,1.906.817-.34-.2-.477.477-.068.613,1.225-.34.34-.272-.545-.817.34,1.157,2.451.817-.34-.2-.408,2.927-2.723-1.089-2.314-.817.34.136.272Zm2.178,1.634-.34-.817,1.5-.2Z" transform="translate(-334.552 -185.089)" fill="#3c3c3c"/>
  <path id="Path_254" data-name="Path 254" d="M324.046,235.276l-.545.2-.34-1.021,1.021-.34.408,1.225.817-.272-.34-1.225.885-.272.34,1.021-.613.2.34,1.089,1.43-.408-1.157-3.88-.885.272.136.408-2.791.817-.136-.408-.817.272,1.157,3.88,1.43-.477Z" transform="translate(-313.767 -193.071)" fill="#3c3c3c"/>
  <path id="Path_255" data-name="Path 255" d="M327.88,239.65c.2-.136.408.068.545.272a.868.868,0,0,1-.272,1.157l.545,1.089,1.5-.817-.545-1.021-.545.2a1.452,1.452,0,0,0-.068-1.566A1.528,1.528,0,0,0,327,238.22c-1.5.817-.068,3-.545,3.2-.272.136-.477-.136-.545-.34a.79.79,0,0,1,.2-1.089L325.5,238.9l-1.5.817.545,1.021.477-.2a1.716,1.716,0,0,0,.136,1.5,1.605,1.605,0,0,0,2.11.885C328.629,242.3,327.268,239.99,327.88,239.65Z" transform="translate(-314.47 -195.13)" fill="#3c3c3c"/>
  <path id="Path_256" data-name="Path 256" d="M332.852,245.759l.408.408-.681.545.613.817,1.361-1.157L331.7,242.9l-1.361,1.157.613.749.681-.545.34.408-2.246,1.906-.34-.477-.681.613,1.634,1.906.681-.545-.408-.477Z" transform="translate(-315.97 -196.679)" fill="#3c3c3c"/>
  <path id="Path_257" data-name="Path 257" d="M338.586,250.566,336.544,249l-.545.681.2.2-2.519,1.77-.34-.272-.545.681,1.7,1.293.545-.681-.408-.34.408-.272,1.089.817-.2.477-.477-.408-.545.681,2.11,1.634.545-.681-.34-.272Zm-2.178,1.5-.681-.545,1.225-.885Z" transform="translate(-317.279 -198.626)" fill="#3c3c3c"/>
  <path id="Path_258" data-name="Path 258" d="M345.41,255.459c.34-.681,0-1.293-.953-1.77L342.21,252.6l-.408.749.34.136-1.293,2.655-.34-.2-.408.817,2.314,1.089c1.157.545,1.838.408,2.246-.408a1.2,1.2,0,0,0-.272-1.43A.768.768,0,0,0,345.41,255.459Zm-2.042,1.293a.52.52,0,0,1-.749.272l-.477-.2.477-1.021.477.2A.52.52,0,0,1,343.367,256.752Zm.613-1.77c-.136.272-.34.408-.613.272l-.34-.2.408-.885.408.2A.429.429,0,0,1,343.98,254.983Z" transform="translate(-319.61 -199.776)" fill="#3c3c3c"/>
  <path id="Path_259" data-name="Path 259" d="M349.823,259.657l-.817-.2.749-2.791.34.068.272-.885-2.042-.545-.272.885.34.068-.749,2.791-.34-.068-.2.885,3.608.953.477-1.7-1.089-.272Z" transform="translate(-321.845 -200.638)" fill="#3c3c3c"/>
  <path id="Path_260" data-name="Path 260" d="M353.977,257.585l.408.068-.34,2.859h-.408l-.136.885,2.178.272.136-.885-.408-.068.34-2.927.408.068.136-.885-2.246-.272Z" transform="translate(-323.888 -201.085)" fill="#3c3c3c"/>
  <path id="Path_261" data-name="Path 261" d="M359.5,258.324c0-.2.272-.34.477-.34a.792.792,0,0,1,.885.749l1.225-.068-.068-1.7h-1.157l-.068.545a1.44,1.44,0,0,0-1.43-.613,1.516,1.516,0,0,0-1.566,1.5c.068,1.7,2.587,1.43,2.655,1.974,0,.272-.34.34-.545.34a.786.786,0,0,1-.885-.681l-1.225.068.068,1.7h1.157l.068-.545a1.745,1.745,0,0,0,1.43.545,1.573,1.573,0,0,0,1.77-1.5C362.225,258.8,359.57,259,359.5,258.324Z" transform="translate(-325.261 -201.142)" fill="#3c3c3c"/>
  <path id="Path_262" data-name="Path 262" d="M369.374,259.212l-.681-2.859.408-.068-.2-.885-2.178.545.2.817.408-.068.272,1.021-1.293.272-.2-.953.408-.136-.2-.885-2.11.545.2.885.34-.136.681,2.859-.34.068.2.885,2.11-.545-.2-.817-.408.068-.272-.953,1.293-.34.2,1.021-.34.068.2.885,2.11-.545-.2-.817Z" transform="translate(-327.305 -200.67)" fill="#3c3c3c"/>
  <path id="Path_263" data-name="Path 263" d="M376.31,250.8l-1.634,1.225h0l-3.676,1.7.408.817.408-.2L373.042,257l-.408.2.408.817,3.676-1.7-.681-1.361-1.021.477.272.545-.953.477-.477-1.021,1.157-.545-.408-.817-1.157.545-.408-.817.953-.477.272.545,1.021-.477-.613-1.293.545.681.34-.272,1.7,2.314-.34.272.545.749,1.634-1.225a2.216,2.216,0,0,0,.613-3.472C378.965,250.052,377.671,249.78,376.31,250.8Zm2.314,3.063-.2.136-1.7-2.314.2-.136c.545-.408,1.225-.068,1.634.545C379.033,252.707,379.169,253.388,378.624,253.864Z" transform="translate(-329.476 -198.998)" fill="#3c3c3c"/>
  <path id="Path_264" data-name="Path 264" d="M388.144,246.951l-2.927-2.451-.749.953a3.444,3.444,0,0,1-.068,1.5l.749.272.2-.749,1.906,1.566-.408.545.681.545,1.7-2.042-.681-.545Z" transform="translate(-333.754 -197.189)" fill="#3c3c3c"/>
  <path id="Path_265" data-name="Path 265" d="M390.166,240.532a1.882,1.882,0,0,0-2.791.613,1.71,1.71,0,0,0,.545,2.383,1.484,1.484,0,0,0,2.11-.545,1.074,1.074,0,0,0,.136-.885.782.782,0,0,1,.34,1.157,1.912,1.912,0,0,1-.817.681l.545.817a2.868,2.868,0,0,0,1.293-1.089C392.344,242.1,391.051,241.009,390.166,240.532Zm-.953,1.77c-.2.34-.545.272-.817.136a.631.631,0,0,1-.2-.817.658.658,0,0,1,.953-.068A.6.6,0,0,1,389.213,242.3Z" transform="translate(-334.618 -195.809)" fill="#3c3c3c"/>
  <path id="Path_266" data-name="Path 266" d="M393.543,235.838a1.427,1.427,0,0,0-1.361.2,1.006,1.006,0,0,0-.613-.885c-.681-.272-1.43.068-1.838,1.021-.34.953-.068,1.7.613,1.974a1.132,1.132,0,0,0,1.021-.136,1.384,1.384,0,0,0,.817,1.089,1.607,1.607,0,0,0,2.042-1.089A1.543,1.543,0,0,0,393.543,235.838Zm-2.791,1.293a.429.429,0,0,1-.2-.613.447.447,0,0,1,.545-.34.456.456,0,0,1,.272.477C391.3,236.859,391.093,237.268,390.752,237.132Zm2.655.545a.65.65,0,0,1-.749.408.689.689,0,0,1-.408-.613c.136-.272.408-.749.885-.545C393.407,237,393.475,237.336,393.407,237.676Z" transform="translate(-335.409 -194.178)" fill="#3c3c3c"/>
  <path id="Path_267" data-name="Path 267" d="M391.281,231.269a1.656,1.656,0,0,0,1.293,2.042,1.416,1.416,0,0,0,1.77-1.225,1.234,1.234,0,0,0-.136-.885.864.864,0,0,1,.749,1.021,1.648,1.648,0,0,1-.545.885l.749.613a3.569,3.569,0,0,0,.885-1.43c.34-1.7-1.225-2.383-2.246-2.519A1.949,1.949,0,0,0,391.281,231.269Zm2.178.477a.5.5,0,0,1-.681.408.587.587,0,0,1-.408-.749c.068-.408.545-.477.885-.408C393.324,231.2,393.528,231.406,393.46,231.746Z" transform="translate(-335.938 -192.468)" fill="#3c3c3c"/>
  <path id="Path_268" data-name="Path 268" d="M344.036,175a34.036,34.036,0,1,0,34.036,34.036A34.049,34.049,0,0,0,344.036,175Zm0,67.12a33.083,33.083,0,1,1,33.083-33.083A33.119,33.119,0,0,1,344.036,242.12Z" transform="translate(-310 -175)" fill="#3c3c3c"/>
</svg>
