<svg id="brand-3" xmlns="http://www.w3.org/2000/svg" width="68.073" height="60.244" viewBox="0 0 68.073 60.244">
  <g id="Group_37" data-name="Group 37" transform="translate(3.131 43.158)">
    <path id="Path_5" data-name="Path 5" d="M51.748,111.306a11.793,11.793,0,0,1-.272,1.361l-1.089,4.016H48.208l-1.157-4.152a4.609,4.609,0,0,1-.2-1.293h-.068v4.084h.613v1.361H44.6v-1.361h.545v-4.561H44.6V109.4h3.948l1.021,3.88,1.021-3.88h3.948v1.361h-.545v4.561h.545v1.361H51.271v-1.361h.613v-3.472l-.136-.545Z" transform="translate(-44.6 -109.264)" fill="#3c3c3c"/>
    <path id="Path_6" data-name="Path 6" d="M59.7,112.944a3.5,3.5,0,0,1,3.608-3.744c2.519,0,3.744,1.5,3.744,3.88a3.386,3.386,0,0,1-3.676,3.744C61.266,116.824,59.7,115.531,59.7,112.944Zm4.765.068c0-1.225-.34-2.246-1.157-2.246-.613,0-1.089.885-1.089,2.178,0,1.361.477,2.246,1.157,2.246C64.125,115.19,64.465,114.305,64.465,113.012Z" transform="translate(-49.421 -109.2)" fill="#3c3c3c"/>
    <path id="Path_7" data-name="Path 7" d="M74.267,109.5v1.361h-.545v2.246c0,1.634.34,2.042,1.021,2.042.613,0,1.021-.272,1.021-2.042V110.93h-.545v-1.361h3.063v1.361h-.545v2.519c0,2.451-1.021,3.54-3,3.54-2.11-.068-3.2-1.157-3.2-3.54v-2.587H71V109.5Z" transform="translate(-53.029 -109.296)" fill="#3c3c3c"/>
    <path id="Path_8" data-name="Path 8" d="M89.584,110.761v5.922H87.337l-2.655-3.948v2.587H85.5v1.361H82.3v-1.361h.613v-4.561H82.3V109.4h3l2.519,3.812v-2.451h-.681V109.4h3.131v1.361Z" transform="translate(-56.637 -109.264)" fill="#3c3c3c"/>
    <path id="Path_9" data-name="Path 9" d="M101.543,112.123h-1.5V110.83h-.885v4.493h.885v1.361h-3.88v-1.361h.817V110.83H96.1v1.293H94.6V109.4h6.943Z" transform="translate(-60.564 -109.264)" fill="#3c3c3c"/>
    <path id="Path_10" data-name="Path 10" d="M109.416,116.684v-1.361h.953l-.2-.681h-2.11l-.2.681h.817v1.361H105.4v-1.361h.681l1.43-4.561H107.1V109.4h3.948l1.838,5.854h.749v1.361h-4.221Zm.34-3.268-.681-2.246-.681,2.246Z" transform="translate(-64.012 -109.264)" fill="#3c3c3c"/>
    <path id="Path_11" data-name="Path 11" d="M121.4,109.5v1.361h-.613v4.493h.613v1.361H118v-1.361h.681v-4.493H118V109.5Z" transform="translate(-68.035 -109.296)" fill="#3c3c3c"/>
    <path id="Path_12" data-name="Path 12" d="M130.984,110.761v5.922h-2.246l-2.655-3.948v2.587h.817v1.361h-3.2v-1.361h.613v-4.561H123.7V109.4h3l2.519,3.812v-2.451h-.681V109.4h3.131v1.361Z" transform="translate(-69.854 -109.264)" fill="#3c3c3c"/>
  </g>
  <g id="Group_39" data-name="Group 39" transform="translate(0 0)">
    <path id="Path_13" data-name="Path 13" d="M44.084,130.484v-1.361h.953l-.2-.681h-2.11l-.2.681h.817v1.361H40v-1.361h.681l1.43-4.561H41.7V123.2H45.65l1.838,5.99h.749v1.361H44.084Zm.34-3.267-.681-2.246-.681,2.246Z" transform="translate(-40 -70.512)" fill="#3c3c3c"/>
    <path id="Path_14" data-name="Path 14" d="M52.7,129.154h.613v-4.493H52.7V123.3h3.131c2.519,0,3.948,1.566,3.948,3.54,0,2.383-1.43,3.744-3.948,3.744H52.7Zm3.131,0c1.089,0,1.566-1.021,1.566-2.314,0-1.089-.477-2.178-1.566-2.178h-.408v4.493h.408Z" transform="translate(-44.055 -70.544)" fill="#3c3c3c"/>
    <path id="Path_15" data-name="Path 15" d="M67.625,128.2a4.045,4.045,0,0,1,.34-1.293l.953-2.246h-.545V123.3H71.3v1.361h-.477l-2.451,5.922H66.467l-2.723-5.922H63.2V123.3h3.812v1.361h-.545l.885,2.314a11.7,11.7,0,0,0,.272,1.225Z" transform="translate(-47.407 -70.544)" fill="#3c3c3c"/>
    <path id="Path_16" data-name="Path 16" d="M81.663,123.3v2.314h-1.77v-.953H78.259v1.43h1.974v1.361H78.259v1.7h1.634V128.2h1.77v2.314H75.4v-1.361h.681v-4.493H75.4V123.3h6.263Z" transform="translate(-51.302 -70.544)" fill="#3c3c3c"/>
    <path id="Path_17" data-name="Path 17" d="M92.584,124.661v5.922H90.337l-2.655-3.948v2.587H88.5v1.361H85.3v-1.361h.613v-4.561H85.3V123.3h3l2.519,3.812v-2.451h-.681V123.3h3.131v1.361Z" transform="translate(-54.463 -70.544)" fill="#3c3c3c"/>
    <path id="Path_18" data-name="Path 18" d="M104.543,126.023h-1.5V124.73h-.885v4.493h.885v1.361h-3.88v-1.361h.817V124.73H99.1v1.293H97.6V123.3h6.943Z" transform="translate(-58.39 -70.544)" fill="#3c3c3c"/>
    <path id="Path_19" data-name="Path 19" d="M111.536,123.3v1.361h-.545v2.246c0,1.634.34,2.042,1.021,2.042.613,0,1.021-.272,1.021-2.042V124.73h-.545v-1.361h3.063v1.361h-.545v2.519c0,2.451-1.021,3.54-3,3.54-2.11-.068-3.2-1.157-3.2-3.54v-2.587H108.2V123.3Z" transform="translate(-61.774 -70.544)" fill="#3c3c3c"/>
    <path id="Path_20" data-name="Path 20" d="M123.036,123.3c2.383,0,2.859.953,2.859,2.11a1.556,1.556,0,0,1-1.5,1.5,1.663,1.663,0,0,1,1.361,1.5c0,.477.068.681.272.681a.311.311,0,0,0,.272-.34v-.34h.681v.545c0,.885-.34,1.634-1.5,1.634-1.361,0-2.042-.681-2.042-1.906,0-.953-.136-1.157-1.021-1.157v1.634h.613v1.361H119.7v-1.361h.613v-4.493H119.7V123.3h3.336Zm-.681,3.131h.477c.613,0,1.021-.272,1.021-.817a.861.861,0,0,0-.953-.953h-.545v1.77Z" transform="translate(-65.446 -70.544)" fill="#3c3c3c"/>
    <g id="Group_38" data-name="Group 38" transform="translate(6.195)">
      <path id="Path_21" data-name="Path 21" d="M71.036,120.6l-.136.136h.2A.211.211,0,0,1,71.036,120.6Z" transform="translate(-56.06 -69.682)" fill="#3c3c3c"/>
      <path id="Path_22" data-name="Path 22" d="M57.677,87.392v.272a5.224,5.224,0,0,1,2.314-.477,6.106,6.106,0,0,1,2.314.408v-.2H72.721l1.838-5.65L70.747,68.809l3.744-15.384,1.77-3.54,8.169,19.06L85.451,71.4,86.54,70.17l3.131,17.222h7.08V82.423l-5.242-4.357.749-13.683,7.08,12.457.681,7.9.068.545.408.408,1.43,1.634h2.314l-2.451-2.791-.681-8.237L92.462,61.184,86,68.264,76.4,45.8,68.569,61.457l-7.556,2.587L56.86,72.825l-6.467,6.6-1.293,7.9h8.577Z" transform="translate(-49.1 -45.8)" fill="#3c3c3c"/>
    </g>
    <path id="Path_23" data-name="Path 23" d="M137.063,123.3v2.314h-1.77v-.953h-1.634v1.43h1.974v1.361h-1.974v1.7h1.634V128.2h1.77v2.314H130.8v-1.361h.681v-4.493H130.8V123.3h6.263Z" transform="translate(-68.99 -70.544)" fill="#3c3c3c"/>
  </g>
</svg>
