<svg xmlns="http://www.w3.org/2000/svg" width="246.463" height="192.354" viewBox="0 0 246.463 192.354">
  <g id="logo" transform="translate(-75.4 -135)">
    <g id="object">
      <g id="XMLID_5742_">
        <g id="XMLID_5774_">
          <g id="XMLID_5896_">
            <path id="XMLID_5897_" d="M182.8,155l1.8-.9c-3.2-2-12.1-4.2-19.5-6.6l4.7,1.9c-1,.6,3,2.3,2.7,3.1C172.8,150.8,179.1,154.1,182.8,155Z" fill="#c1dcf2"/>
          </g>
          <g id="XMLID_5894_">
            <path id="XMLID_5895_" d="M196.1,156.3l-12.5-3.1,4.9,2.1Z" fill="#c1dcf2"/>
          </g>
          <g id="XMLID_5892_">
            <path id="XMLID_5893_" d="M193.9,158.4c.5.3,1.4.6,2,.9A7.218,7.218,0,0,0,193.9,158.4Z" fill="#c1dcf2"/>
          </g>
          <g id="XMLID_5890_">
            <path id="XMLID_5891_" d="M212.9,162.3a136.318,136.318,0,0,1-16.7-5.5,36.272,36.272,0,0,0,4.3,2c-3.9-1.1-9.3-2.1-13.9-3.3,1.7,1.6,4.5,1.8,7.4,2.9-.7-.4-1-.8.5-.6,4.1,2.4,7.3,1.7,11.2,3.8l-4.1-.7c.2,1.2,8.6,1.4,7.8,3.2C215,164.3,205.7,161.2,212.9,162.3Z" fill="#c1dcf2"/>
          </g>
          <g id="XMLID_5888_">
            <path id="XMLID_5889_" d="M217,164.1c-.4.1-.6.2-.5.3C216.9,164.3,217.1,164.2,217,164.1Z" fill="#c1dcf2"/>
          </g>
          <g id="XMLID_5886_">
            <path id="XMLID_5887_" d="M215.7,165.4c4.2,1.4,10.6,3.3,12.2,2.2-4.1-2.3-5.3-1.4-7.5-1.4-.9-.5-3.6-1.4-3.9-1.9C215.7,164.5,214.5,164.7,215.7,165.4Z" fill="#c1dcf2"/>
          </g>
          <g id="XMLID_5884_">
            <path id="XMLID_5885_" d="M235.5,170.3l-2-.4v-1c-.4.1-2.4,1.4-6.6,0,2,1.4,3,.7,5.1,1.7Z" fill="#c1dcf2"/>
          </g>
          <g id="XMLID_5882_">
            <path id="XMLID_5883_" d="M230.7,163.6a72.638,72.638,0,0,0-7.8-.6c4.9.5,12.6,4.2,12.1,1.7a17.59,17.59,0,0,0-4.8-.9Z" fill="#c1dcf2"/>
          </g>
          <g id="XMLID_5880_">
            <path id="XMLID_5881_" d="M235.3,164.7c2.5,1.3,4.3,1.5,7.6,2.1C240.5,166.2,237.7,165.4,235.3,164.7Z" fill="#c1dcf2"/>
          </g>
          <g id="XMLID_5878_">
            <path id="XMLID_5879_" d="M235,164.7a.367.367,0,0,1,.3.1c-.1-.1-.2-.2-.3-.1Z" fill="#c1dcf2"/>
          </g>
          <g id="XMLID_5876_">
            <path id="XMLID_5877_" d="M245.2,174.2l-6.3-2.3,1.4.8Z" fill="#c1dcf2"/>
          </g>
          <g id="XMLID_5874_">
            <path id="XMLID_5875_" d="M238.7,168c5.1,1.7-2.5-1.9,2.3-.4,1.4.3-7.1-2.1-7.7-1.6C234.5,166.7,238.4,166.8,238.7,168Z" fill="#c1dcf2"/>
          </g>
          <g id="XMLID_5872_">
            <path id="XMLID_5873_" d="M254.5,177.3c2.2,0,5.2,2.3,7.9,2.8l1.2-.4C257.7,179.3,257.6,176.1,254.5,177.3Z" fill="#c1dcf2"/>
          </g>
          <g id="XMLID_5870_">
            <path id="XMLID_5871_" d="M277.3,182.9c-.8.2-2.4-.2-2.3.4-1.9-.7-1.3-1.2-2.5-1.9-3.5-.2-8.5-2.4-11.4-2.5a7.277,7.277,0,0,1,2.5.9c5,2.1,12.2,3.2,15.5,5.8C278.5,184.5,281.8,184.5,277.3,182.9Z" fill="#c1dcf2"/>
          </g>
          <g id="XMLID_5868_">
            <path id="XMLID_5869_" d="M258.1,174c-1.1-.4-2.1-.7-3.1-1.1a10.279,10.279,0,0,0,3.1,1.1Z" fill="#c1dcf2"/>
          </g>
          <g id="XMLID_5866_">
            <path id="XMLID_5867_" d="M258.9,173.7c1.7-.5,5.5,1.6,6.5,1-.1-.4-2.3-1.4-3-1.8-1.5,1.3-5.8-1.8-4.4,1.1a43.006,43.006,0,0,0,5.3,1.4Z" fill="#c1dcf2"/>
          </g>
          <g id="XMLID_5864_">
            <path id="XMLID_5865_" d="M250.4,170.4l-2.1.6a44.812,44.812,0,0,1,6.6,1.8C253.9,172.1,254.7,171.6,250.4,170.4Z" fill="#c1dcf2"/>
          </g>
          <g id="XMLID_5862_">
            <path id="XMLID_5863_" d="M262.4,172.9c.1-.1.2-.2.2-.3C262.1,172.6,262.2,172.7,262.4,172.9Z" fill="#c1dcf2"/>
          </g>
          <g id="XMLID_5860_">
            <path id="XMLID_5861_" d="M283.4,181.4c-.5-.2-1-.3-1.6-.5h0c.2.1.3.1.5.2.3.1.7.3,1,.4.4.1.8.3,1.2.4,1.2.4,2.3.8,3.5,1.2a19.507,19.507,0,0,0-2.9-1.1C284.6,181.8,284,181.6,283.4,181.4Z" fill="#c1dcf2"/>
          </g>
          <g id="XMLID_5858_">
            <path id="XMLID_5859_" d="M278.6,179.5c1.4.8,1.9,1.6-.3,1.2l-1.8-1.7-6.2-.1c4.6.3,9,3.8,10.4,2.1l2,1.4-.9-1.3-1.5-.6A10.626,10.626,0,0,0,278.6,179.5Z" fill="#c1dcf2"/>
          </g>
          <g id="XMLID_5856_">
            <path id="XMLID_5857_" d="M295.2,184.7l.3.2a57.953,57.953,0,0,1-7.5-1.8l.6.3a32.078,32.078,0,0,1,5,2.6c-1.4,2.8-2.7,4.9-3.6,6.7-.3.6-.6,1.2-.9,1.7a.367.367,0,0,1-.3.1,7.347,7.347,0,0,1,1.1-3.7c.7-1.4,1.7-3,2.1-3.9-.5-.2-.9-.3-1.2-.1a2.181,2.181,0,0,0,.5.4c-1,1.9-1.8,3.9-2.5,5.6a16.474,16.474,0,0,1-.9,2.2,3.347,3.347,0,0,1-.9,1.4c0,1,1.3-1.5.8,1.2-1.5,3.8-1.7,3.1-3.1,5.3l.2,2.4c-1.3,0-2.3,4.1-3.5,8.4,1.3-2.9,2.6-5.8,3.9-8.9.7-1.8,1.5-3.6,2.2-5.5.1-.4.3-.8.4-1.2-1,7.8-5,14.2-7.1,21.9-.3,4,1.6-3.5,2.3-3.7,1.4,1.6-2,3.4-1.1,5.6,1.1.9,3.7-7.6,5.4-10.7.7-3,.3-3-.1-4.1.9-.5,2-3.4,2.9-3.9a23.8,23.8,0,0,1,.9-4.2l.6-1.8c.3-.7.5-1.3.7-1.9a45.1,45.1,0,0,0,2.8-9.8c.2-.4.4-.6.5-.6h0Z" fill="#c1dcf2"/>
          </g>
          <g id="XMLID_5854_">
            <path id="XMLID_5855_" d="M295.8,184.9l-1.1,3.7c-.4,1.2,0,.2.4-1.1C295.6,186.3,296,184.8,295.8,184.9Z" fill="#c1dcf2"/>
          </g>
          <g id="XMLID_5852_">
            <path id="XMLID_5853_" d="M278.6,179.5a3.7,3.7,0,0,0-1.1-.5A9.746,9.746,0,0,1,278.6,179.5Z" fill="#c1dcf2"/>
          </g>
          <g id="XMLID_5850_">
            <path id="XMLID_5851_" d="M271.3,177.1l-3.2-.9A10.309,10.309,0,0,0,271.3,177.1Z" fill="#c1dcf2"/>
          </g>
          <g id="XMLID_5848_">
            <path id="XMLID_5849_" d="M275,177.1c-4.9-1.9-2.3.1-3.7,0l4.6,1.3Z" fill="#c1dcf2"/>
          </g>
          <g id="XMLID_5846_">
            <path id="XMLID_5847_" d="M280.7,224.5c0,2.7,1.4-.1,2.1-3.1C282,224,281,225.2,280.7,224.5Z" fill="#c1dcf2"/>
          </g>
          <g id="XMLID_5844_">
            <path id="XMLID_5845_" d="M264.9,256.5c-.4.2-.9.9-1.3,3.1A10.521,10.521,0,0,0,264.9,256.5Z" fill="#c1dcf2"/>
          </g>
          <g id="XMLID_5842_">
            <path id="XMLID_5843_" d="M288.9,191.1c-.1.3-.2.7-.3,1A6.214,6.214,0,0,0,288.9,191.1Z" fill="#c1dcf2"/>
          </g>
          <g id="XMLID_5840_">
            <path id="XMLID_5841_" d="M273.2,232.6l.3-.4c-.2.1-.2.2-.3.4Z" fill="#c1dcf2"/>
          </g>
          <g id="XMLID_5838_">
            <path id="XMLID_5839_" d="M159.3,148.3c-.7-.2-1.5-.4-2.3-.6.6.2,1.4.4,2.3.6Z" fill="#c1dcf2"/>
          </g>
          <g id="XMLID_5836_">
            <path id="XMLID_5837_" d="M161.8,147.7a11.844,11.844,0,0,0-2.2-1.4,11.432,11.432,0,0,0-3.1-.9,9.432,9.432,0,0,1,2.7,1.5c.2.2,0,.2-.3.2s-.7,0-.7.1c0,.2.3.5,1.1,1.1,2.7.7,5.5,1.4,8.2,2A15.215,15.215,0,0,1,161.8,147.7Z" fill="#c1dcf2"/>
          </g>
          <g id="XMLID_5834_">
            <path id="XMLID_5835_" d="M167.5,150.3c.4.1.9.2,1.4.3A3.529,3.529,0,0,1,167.5,150.3Z" fill="#c1dcf2"/>
          </g>
          <g id="XMLID_5832_">
            <path id="XMLID_5833_" d="M220.4,162.7h-.3C220.7,162.8,220.9,162.8,220.4,162.7Z" fill="#c1dcf2"/>
          </g>
          <g id="XMLID_5830_">
            <path id="XMLID_5831_" d="M143.9,298.6c1.2.6,4.1.7,6.2,1.7C148.2,299.6,145,297.6,143.9,298.6Z" fill="#c1dcf2"/>
          </g>
          <g id="XMLID_5828_">
            <path id="XMLID_5829_" d="M142.7,303.1l.1-.2a4.484,4.484,0,0,1-1.1-.1C142,302.9,142.3,303,142.7,303.1Z" fill="#c1dcf2"/>
          </g>
          <g id="XMLID_5826_">
            <path id="XMLID_5827_" d="M143,302.4l-.2.5C143.4,302.9,143.7,302.8,143,302.4Z" fill="#c1dcf2"/>
          </g>
          <g id="XMLID_5824_">
            <path id="XMLID_5825_" d="M134.3,300.4l4.2,1.4c-.3.7-.5,1.1-3,.2.5.5,3,.7,4.3,1l-.9-.4a15.206,15.206,0,0,1,2.8.2C138,301.6,135.7,298.8,134.3,300.4Z" fill="#c1dcf2"/>
          </g>
          <g id="XMLID_5796_">
            <path id="XMLID_5823_" d="M128.3,299.3c1.6.5,5.5,1.6,4.6.3Z" fill="#c1dcf2"/>
          </g>
          <g id="XMLID_5794_">
            <path id="XMLID_5795_" d="M122.2,296.2c4.7,2.1,2.4.1,5.3.7a8.4,8.4,0,0,0-2.4-.6C127.5,297.6,123.3,296.2,122.2,296.2Z" fill="#c1dcf2"/>
          </g>
          <g id="XMLID_5792_">
            <path id="XMLID_5793_" d="M127.5,296.9l1.2.3A2.663,2.663,0,0,0,127.5,296.9Z" fill="#c1dcf2"/>
          </g>
          <g id="XMLID_5790_">
            <path id="XMLID_5791_" d="M174,305.9l-.2-.5C173.6,305.5,173.6,305.6,174,305.9Z" fill="#c1dcf2"/>
          </g>
          <g id="XMLID_5788_">
            <path id="XMLID_5789_" d="M112.6,292.1l-.5-.2-2.1-.6Z" fill="#c1dcf2"/>
          </g>
          <g id="XMLID_5786_">
            <path id="XMLID_5787_" d="M182.7,146.6l-.5.1A1.088,1.088,0,0,0,182.7,146.6Z" fill="#c1dcf2"/>
          </g>
          <g id="XMLID_5784_">
            <path id="XMLID_5785_" d="M105,274.6Z" fill="#c1dcf2"/>
          </g>
          <g id="XMLID_5779_">
            <path id="XMLID_5780_" d="M272.9,231.4c1.5-3.3,0,2.5,1.4-.2-.3,3.5-3.9,7.2-5,13.3.4-2.2,1-1.1.9.1-1.7,3.7-3.3,10.1-4.5,14a.614.614,0,0,1,.6.1c-1.5,3.3-1.8,4.3-3.7,7.9-5.9,13.8-10.2,34-15.9,45.5-2.2,3.5.2-4.3-.8-2.9a75.937,75.937,0,0,0-.9,11.2,293.621,293.621,0,0,0-32.7-11.8c-1.7-.2-3.2-.3-1.1.8,3.8.5,5.4,2,2.5,1.9-4.1-.7.7-.9-4.2-1.4l2.1,1c-4.6-1.2-7-1.5-10.1-1.2-17.6-6.8-38.1-9.2-53.1-16.1l-5.7-.3c-.1-.6-.5-1.5-3.2-2,.9.4,2.6.9,2.1,1l-12-3.6,1,1a39.536,39.536,0,0,0-7.3-2.3c-2.7-.7-5.8-1.6-6.6-2.5-.2.4-2.3,0-2.6.5a23.293,23.293,0,0,0-2.8-1.1c.8-2.1,1.4-4.2,2-6.2.8-2.7,1.5-5.4,2.3-8a81.571,81.571,0,0,1,5.2-14.5c-.7.8-.7-.3-.9-.7,1.1-3.9.7-.8,1.5-1.6-2.7-2.6,17-52.4,17.3-59.2-.4.9-.7,1.9-.9,1.5,2.4-8.2,4.9-16.8,7.4-25.2,1.2-4.2,2.5-8.5,3.7-12.7.5-1.9,1.1-3.9,1.6-5.8.5-1.7.9-3.5,1.4-5.2,1.7.4,3.3.9,4.8,1.3-2-.6-2.4-1.3-2.6-1.9s-.2-1.2-1.8-1.9c-1.5-.2-.3.4.6.8,1,.5,1.7.9-.2.5a10.349,10.349,0,0,0-2-1.1,6.424,6.424,0,0,0-.7,3.7,5.537,5.537,0,0,1-.2,1.8,10.019,10.019,0,0,1-1.3,2.5c0-1.1.1-2.4.1-3.7-.8,4-1.7,7.8-2.8,12s-2.3,8.5-3.6,12.5l-1-1.1c-.4,3.1-1.7,7.3-3,7.5,3.1-9.3.8-11.7,3.7-17.1.2.8.1.4.6-.1a24.083,24.083,0,0,1,.3-5.1,20.566,20.566,0,0,1,.7-3.2c.2-.5.3-1.1.5-1.6.1-.4.3-.7.4-1.1.2-.4.3-.8.5-1.2v1.4a4.483,4.483,0,0,0,.1,1.2c1.2-3.9,2.4-8,3.7-12.1,2.9.9,5.9,1.8,8.7,2.6,1.3.4,2.6.8,3.9,1.1,1,.3,2,.5,3,.8-1.7-1.1.5-1.1,3.4-.4,4.4,1.6-1.5.1.2,1.2,2.3,2.2,11,2.6,14.2,3.6-1.1,0,8.4,3.3,2.4,2.2,7,2.5,12.6,2.1,16.9,5.1a12,12,0,0,1,4.8-.1l-.5,1.1,2.6-.1c4.8,1.5,6.4,4.4,11.5,4.9-.9-.2-2.8-.7-2.8-1.3.7-.9,9.9,1.6,8.5-.2l-4.2-.4c1.7-.5-3.6-1.9-2.3-2.2L208,156l.1-1,2.4,1.2c3.8-1.1-5.3-1.4-8-3.5l-.3.7c-9.1-3.5-3.6-1.9-11.1-4.8l-2.6.1c-.4.1,7.2,1.1,6.7,2.2-5.2-.7-11.9-3-17.5-3.6l4.2-.7c-2,.1-4.7-2.6-9.6-3.9l4.3,2c-2.1.3-5.3-.6-8.7-1.7-1.7-.5-3.5-1.1-5.2-1.6-.5-.1-.9-.3-1.4-.4l-2.1-.6a32.368,32.368,0,0,0-4-.9c2.7.8,5.4,1.7,5.7,2.3-2.3-.1-8.2-2.2-12-3.7.1-1.1,6.2.5,12,2,.3.1.7.2,1,.3.2,0,.4.1.6.1.4.1.8.2,1.1.3.7.2,1.4.3,1.9.4,1.1.2,1.7.1,1.5-.4a30.649,30.649,0,0,0-3.8-1c-.3-.1-.6-.1-.9-.2a4.077,4.077,0,0,1-.7-.2l-.9-.2c-1.1-.2-2.2-.5-3.3-.7-4.2-.9-7.7-1.4-10.8-2.1a46.285,46.285,0,0,1-1.6,5.5c.3-2.1.6-4.4.9-6.8h.4l-.4-.1-1.4,5.9.6-1.7a18.645,18.645,0,0,1-1.3,5.6q-.6,1.5-1.2,3.3c-.2.6-.4,1.2-.6,1.7l-.3.9-.1.4-.1.3c0-.1-.1-.2-.1-.3v-1.3l-.1-1.9-1.9,6.2.5-.5a143.909,143.909,0,0,1-6.9,21.6l1.7-4a17.838,17.838,0,0,1-1.2,4.6c.9-.4,2.2-5.6,2.7-5.1-2.2,6.7-3.3,7.4-5.9,13.9.2.8,3.1-3.8,1.8,1.9-.9-.7-2.7,4-2.6,0-.7,5-1.9,3.4-1.9,7.5a7.59,7.59,0,0,1,.6-1.8c1-1.1,0,2.2-.3,3.6a22.392,22.392,0,0,0-3.6,6.5l-1.6,7.7c-.2.3-.4-.2-.4-.2-1.7,7.3-4.7,14.8-5.7,20.3.2.8.2,3,1.4-.9,0,3.3-2.1,7.1-3.5,10.2l-.2-3c-2.5,9.2-7.2,19.6-8.6,28.2l1.2-1.3c-.5,2-1,3.9-1.6,5.8-.3.9-.6,1.9-.9,2.8s-.6,1.9-.9,2.7c-2,6.4-3.9,12.2-4.7,15.9h0c1.2-2.8,1.6-3.6,1.8-3.5a13.3,13.3,0,0,1-.6,2.9c3.5.9,8.6,2.5,10.1,2.7-2.9-1-6.2-2-9.7-3,1.1-3.9,2.1-7.7,2.8-10.6a46.244,46.244,0,0,1,1.3-4.5l-.2.2,2.4-10.8,1.1.5c-2.3-1.4,5.3-13.8,2.5-12.5.7-3,2.1-3.9,2.6-3.3l1.7-8.4c.7-.8,1.4,1.3,1,2.2-1,3.2-1.6,8.8-3.7,11.6-.1,2.9,2-2.1.5,3.9a119.818,119.818,0,0,0-4.8,13.5c-.8,2.8-1.7,5.5-2.4,8.1-1,3.2-1.9,6.2-3,9.1,1.3.5,2.6.9,3.7,1.4-2.1-1.1-4.5-1.8-.7-1.3,2,.9,4.2,1.9,6.5,2.9,1.6.4,3.1.7,4.2.9.8.1,1.6.1,2.3.2a8.308,8.308,0,0,1,4,1.1c.6-.2-1.1-.9-3.3-1.7-1.2-.4-2.4-.9-3.6-1.3a22.671,22.671,0,0,1-3.5-1.4,11.813,11.813,0,0,1,4.3.3,6.9,6.9,0,0,1,.8.3c.3.1.5.2.8.3.5.2,1,.5,1.5.7,2,1,4,2.1,6.3,1.8,2.2-1-10.5-2.7-6.5-3.6l5.4,2c-1.6-1.5-3.9-2-5.9-2.5-1.9-.4-4.1-.9-4.2-2a15.2,15.2,0,0,1,4.8,1.2,19.72,19.72,0,0,1,3.5,1.5c1.8.1-2.8-2.1.4-1.7,2.9,1.7,4.7.9,7,2.5l-1.7.5c2.3.6,7.9,2.9,10.6,3.3-.2,1.4-7,.1-9.5-.8,2,1.4,6.3,2.4,8.6,3l-4-1.7c6.2,1.7,5.4-.6,12.4,1.9,5.9,1.5,1.2,1.6,2.9,2.7,6.8,1.2,2.3.6,2.5-.7,5.3,1.4,6.3,2.4,13.2,4.2-4.1-.7-5.3-.4-9.1-1.9l.9,1.4c5.4,1,9.8,1,16.3,2l.3,1c1.5-.3,51.9,14.8,49.2,12.3.7.4-10.1-2.8-19.6-5.6l.6-.2c7.9,1.8,30.1,7.9,23.6,6.1.9-1.2,4.1.7,4.3-.6a99.183,99.183,0,0,1,13.1,3.6c.2,5.2,1.8,7,4.1,6.6.1-.7.2-1.4.3-2,.2.2,1.1.2,1.6-2,.7-3.3-.5-1.2-1-.9-.1,0-.1-.1-.2-.1v-.5c4-3.9,2.6-15.1,7.4-19.1,5.6-20.4,12.4-44.9,18.5-63.1l-.5.8c.2-2.1,2.1-6.9,2.8-6.8l-.8-1.2c1.6-7,2.6,4.5,4.7-3.4-1.9,3.8-2.6-.1-1.5-3-.5.6-2.3,0-2.7,1.6l-2.4,3.8c1.8.7-1.2,7.3-2.3,9.6,0-.1-.1-.2-.1-.3.3-.9.2-.8-.1-.3a7.66,7.66,0,0,1,1.3-6.2,89.094,89.094,0,0,1,2.7-9.2C275.4,226.6,273.9,227.6,272.9,231.4Zm-82.2,76.9a15.425,15.425,0,0,0,1.7.5c-1-.3-1.7-.5-2.2-.6A1.087,1.087,0,0,0,190.7,308.3Zm12,3.6-1.2-.3a6.864,6.864,0,0,1,2.3.3Z" fill="#c1dcf2"/>
          </g>
          <g id="XMLID_5777_">
            <path id="XMLID_5778_" d="M276.7,225.4a7.926,7.926,0,0,0,2.5-3.7c-.1-.2-.2-.5-.4-.3a40.71,40.71,0,0,0,2.6-7.7c-.2.4-.4.8-.6,1.3C279.4,218.5,278,222,276.7,225.4Z" fill="#c1dcf2"/>
          </g>
          <g id="XMLID_5775_">
            <path id="XMLID_5776_" d="M278,233.9l.2.2C278.1,233.9,278.1,233.9,278,233.9Z" fill="#c1dcf2"/>
          </g>
        </g>
        <g id="XMLID_5743_">
          <g id="XMLID_5769_">
            <path id="XMLID_5770_" d="M119.8,229.7c0,.8-.4.8-.3,1.5a26.252,26.252,0,0,1-1.6,5c-.8,2.2-1.7,4.3-2.6,6.5-1.2,2.4-2.4,4.6-3.6,6.9-.5.9-6.9,9-7.5,9.5-1.7,1.2-4.7,4.7-6.3,5.8a28.193,28.193,0,0,1-6,2.3,18.059,18.059,0,0,1-5.2-.1c-2.8-.4-7-4.6-8.3-7.3a17.761,17.761,0,0,1-1.9-3.6,43.258,43.258,0,0,1-1.1-6.6c0-11.3,1.3-12.9,4.6-23.8.3-.9.4-1.7.7-2.7a12.046,12.046,0,0,1,.8-2.7c.4-1.5.8-3,1.2-4.3.7-3,4.2-8.1.9-8.7a4.272,4.272,0,0,1-2.6-.7c-.8-.5-1.6-.9-2.4-1.5a1.837,1.837,0,0,1-.8-1.2c.3-.1.5-.3.7-.3,1.9-.4,3.6-.8,5.5-1.2a24.448,24.448,0,0,1,3.9-.5,1.6,1.6,0,0,0,1.3-1.1,17.88,17.88,0,0,0,1.3-3.2c1.3-2.6,2.3-5.2,3.8-7.7a24.788,24.788,0,0,1,4.4-5.6c.3-.4.7-.8.9-1.1a1.845,1.845,0,0,1,1.7-.5c.8.3,1.6-.1,2.6-.1.1,0,.1,0,.3-.1,1.9-.4,2.6.4,3.1,1.9a8.751,8.751,0,0,1,.9,4.3,7.8,7.8,0,0,0,.3,2.2,6.017,6.017,0,0,1,0,1.9c-.1.7-.3,1.3-.4,2.2-.3,1.1-.5,2.1-.8,3.2a4.1,4.1,0,0,1-.1,1.1,1.943,1.943,0,0,0,1.3.3c1.6-.1,3.4-.3,5-.4h7c.8,0,1.6.3,2.6.4-.3.4-.4.7-.5.8-.3.3-.7.5-.9.7-.9.4-2,.9-3,1.3a.1.1,0,0,1-.1.1c-1.5.1-3.1.8-4.7.7a9.034,9.034,0,0,0-2.8.4,5.256,5.256,0,0,1-1.7.4c-1.1.1-2,.3-3.1.4-.5.1-.8.5-1.1,1.1-.1.1-.1.3-.3.4-1.6,4.6-3.8,8.9-5.5,13.3-.3.5-.5,1.1-.7,1.5a19.657,19.657,0,0,0-1.6,4,22.613,22.613,0,0,1-1.7,3.5c-.5.9-.4,2.1-1.1,3.1-1.5,3.4-3.2,13.6-3,18.7a26.33,26.33,0,0,0,1.3,6.2,6.7,6.7,0,0,0,1.2,1.6,4.331,4.331,0,0,0,.5.1c1.2,0,3.6.1,4.8-.7.8-.5,4.8-3.8,5.6-4.4,2-2,6.6-7,7.9-9.7,1.2-2.3,1.9-5.2,3.1-7.4.5-1.3,1.9-4.3,2.6-5.8C119,229.8,119.9,229.3,119.8,229.7ZM99,209.8c1.3-3.4,1.7-6-2.7-3.2-1.5,4.4-2,7.5-3.2,11.7-3,11.2,1.3,2.8,3.2-2.2A38.545,38.545,0,0,1,99,209.8Zm4.1-15.4c.1-.5.3-1.2.4-1.9.1-1.1.4-2.2.5-3.2a21.663,21.663,0,0,0-.1-3.6c-.1-.5-.5-.7-.8-.4a3.744,3.744,0,0,0-1.2,1.3,14.762,14.762,0,0,0-1.3,3.5c-.1.4-.4.8-.5,1.2-.3.5-.5,1.1-.8,1.7-.3,1.3-.5,2.8-.9,4.3-.5,3.5,3.2,3.6,4,1.2C102.6,197.2,102.9,195.8,103.1,194.4Z"/>
          </g>
          <g id="XMLID_5766_">
            <path id="XMLID_5767_" d="M128.1,234.4c.5-2,5.2-11.6,6.2-13.2a34.8,34.8,0,0,0,2.3-3.8,20.886,20.886,0,0,0,2.1-3.4,2.957,2.957,0,0,1,2.2-1.6c.9,0,1.7-.1,2.6-.1,1.6,0,2.6,1.2,3.4,3v.5c.3,1.7.7,3.6.9,5.5a32.268,32.268,0,0,1,.1,5.4c0,1.2.1,2.4,0,3.6.7.4.5.9.7.8.3-.3,1.2.1,1.5-.1.1-.3.4-.4.5-.7a7.331,7.331,0,0,0,1.6-1.5c.4-.7.8-.7,1.3,0a1.274,1.274,0,0,1-.5,1.1,2.146,2.146,0,0,0-.4.7,1.22,1.22,0,0,1-.8.9l-.4.4c-.1.1-.4.3-.4.4-.1.1-.3.1-.4.3a1.932,1.932,0,0,1-1.5.7,2.426,2.426,0,0,0-1.2.5.782.782,0,0,1-1.1,0c-.9-.5-1.9-.7-2.8-1.1-1.6-.4-2.8-1.9-3.5-3.8a16.618,16.618,0,0,1-.4-7.7,20.916,20.916,0,0,0,.4-3.4c.1-.8.3-1.6.4-2.4a1.583,1.583,0,0,0,.1-1.5c-.1,0-.4-.1-.4.1a2.1,2.1,0,0,0-.5.7c-.5,1.1-1.2,2.2-1.9,3.4a6.194,6.194,0,0,0-.8,2.4c.1.5-.3.9-.4,1.3a40.185,40.185,0,0,0-3.1,7c-.7,1.9-1.6,3.5-2.4,5.4a86.668,86.668,0,0,0-3.6,8.3c-.3.9-.8,2-1.2,3.1-.3.8-3.6,7.3-4.4,7.9,0,.3-.4.4-.7.7-1.6,2.3-3.5,2.1-5.6,1.6-.3.3-.5,0-.8-.3-2.2-.5-3.2-2.6-3.8-5.2a41.108,41.108,0,0,1-.4-7c.1-3.5.3-7,.5-10.5.7-3.9.1-3.6,1.2-7.3.9-5.2.4-4.4,2.3-9.7.1-.9.7-1.6.9-2.6a58.578,58.578,0,0,1,2.8-6.7c.5-1.7,1.1-2,2.4-1.7a27.97,27.97,0,0,1,3.4.5,5.063,5.063,0,0,1,2.7,1.3,30.254,30.254,0,0,0,3.6,4.6,7.006,7.006,0,0,1,.7,6.3c-.7,2.7-.9.7-1.6,3.5-1.7,5.6-5,10.1-6.4,15.2C121.4,243,127.6,236.7,128.1,234.4Z"/>
          </g>
          <g id="XMLID_5763_">
            <path id="XMLID_5764_" d="M202.4,230.5c-.1.9-1.5,4.2-2.2,4.7-.4.1-.5.5-.8.7a8.3,8.3,0,0,1-1.5,1.7c-.3.3-.7.5-.8.9a3.539,3.539,0,0,1-1.6,1.6,1.794,1.794,0,0,0-.7.5c-.8.9-1.9,1.7-2.7,2.6a5.349,5.349,0,0,1-2.6,1.3,34.022,34.022,0,0,0-3.4.7,23.765,23.765,0,0,1-3.1.7h-1.2a13.2,13.2,0,0,1-4.6-1.9,2.146,2.146,0,0,0-.7-.4,7.318,7.318,0,0,1-3.2-2.3,14.844,14.844,0,0,0-2.8,1.7c-.5.3-.9.5-1.5.9a1.007,1.007,0,0,0-.3.1c-.8,1.1-1.9,1.2-3,1.6a7.448,7.448,0,0,1-5.5-.4,8.818,8.818,0,0,0-2-.9,9.847,9.847,0,0,1-6.4-8.7,9.432,9.432,0,0,1,1.1-6,26.5,26.5,0,0,1,3.2-5,.536.536,0,0,1,.3-.4,87.251,87.251,0,0,1,5.9-7.7,23.332,23.332,0,0,1,5.1-4.2,4.22,4.22,0,0,1,1.2-.3,18.644,18.644,0,0,1,2.6-.3h.4a22.913,22.913,0,0,0,2.8.7c.3.1.5.3.8.3.7.1,1.2.1,1.5.7a.494.494,0,0,0,.3.1c.7,0,1.2.7,1.9.7a.908.908,0,0,1,.7.3,17.282,17.282,0,0,1,2.3,2.4c.1.4.3.7.4,1.1a2.142,2.142,0,0,1-1.2,2.7,17.35,17.35,0,0,0-3.4,2.1v.1a31.923,31.923,0,0,0-4.4,4.6,13.25,13.25,0,0,1-1.6,1.7,34.273,34.273,0,0,0-3.2,4.3c-.4.7-.9,1.3-1.3,1.9a1.769,1.769,0,0,0-.5.8,16.821,16.821,0,0,0-1.6,4.4c-.1.1,0,.3,0,.5a1.082,1.082,0,0,0,.5-.4,42.117,42.117,0,0,1,4.4-3.9,7.4,7.4,0,0,0,2-2.3,11.985,11.985,0,0,1,1.1-1.2,23.72,23.72,0,0,0,2.3-3c.9-1.5,1.9-3,2.8-4.6a3.248,3.248,0,0,1,3,.9l.8.8a7.134,7.134,0,0,1,1.2,3.9c0,.3-.1.4-.3.7a33.66,33.66,0,0,1-1.9,3.8,5.478,5.478,0,0,0-.4,2.8,23.007,23.007,0,0,0,1.2,3.4,1.525,1.525,0,0,0,1.2.7,9.592,9.592,0,0,0,2.8-.7c.8-.4,1.7-.8,2.6-1.3s1.9-1.1,3-1.7c.7-.7,1.5-1.2,2.2-1.9,1.7-1.7,4.4-6.2,6.2-7.9.1-.1.3-.1.4-.3A6.914,6.914,0,0,1,202.4,230.5Z"/>
          </g>
          <g id="XMLID_5755_">
            <path id="XMLID_5756_" d="M244.1,231.9c-.4.5-.5,2.6-.7,3.2-.1.4-.9.8-1.2,1.1-.3.8-4.7,1.9-5.1,1.9-1.3.8-4.8-1.6-5.2-1.7a20.778,20.778,0,0,1-2-1.5,19.988,19.988,0,0,0-2.6-2.4c-1.2-2.3-1.9-3-3.1-5.1-1.2,1.6-.9,1.7-2,3.9-1.1,2-1.9,4.2-3.2,6.3-.4.3-.5.7-.8.9a8.532,8.532,0,0,1-2.3,3.5,19.54,19.54,0,0,0-1.9,3.5c0,.1-.1.5-.1.7a4.31,4.31,0,0,1-.8,2.4,11.013,11.013,0,0,0-2,3.1,8.814,8.814,0,0,1-3.5,4.6,1.943,1.943,0,0,1-1.6.8,8.636,8.636,0,0,1-1.5-.1,11.21,11.21,0,0,0-2.4.3c-1.9.8-3.8.3-4.6-1.6-.4-.9-4.6-3.8-5.2-4.4-.9-.9-2.4-4-2.1-5.2a27.19,27.19,0,0,1,.4-3c.5-2,.8-4.4,1.3-6.6.4-1.6.7-3.2,1.1-5,.9-3.8,1.6-7.4,2.6-10.9a43.1,43.1,0,0,0,1.5-6.2,16.518,16.518,0,0,1,.5-3.8c.1-1.3,0-.8.1-1.9a2.461,2.461,0,0,1,.4-1.1c.4-.3.9-.1,1.3.3a1.853,1.853,0,0,0,.7.8c.5.7.3.8,1.2.8a1.234,1.234,0,0,1,.8.5,9.91,9.91,0,0,0,2.7,2.7c.5,1.1,1.5,1.7,1.6,3.1a5.7,5.7,0,0,1-1.3-.1,2.621,2.621,0,0,0-.1,2.3,10.463,10.463,0,0,1,.8,4.4c0,.7.1,1.3.1,1.7a17.01,17.01,0,0,1,.5,5v1.1c.1,1.3.1,2.7.1,4a15.544,15.544,0,0,0,.1,3.1,3.443,3.443,0,0,1-.4,1.9l-.4-.1a7.436,7.436,0,0,0-.3-1.7c0-.1-.3-.3-.4-.4-.1,0-.3-.3-.4,0-.1,0-.3.3-.3.4,0,1.5,0,2.8.1,4.2a5.45,5.45,0,0,1,.1,2.2,1.247,1.247,0,0,0,.3,1.2,1.634,1.634,0,0,0,.7,0,.316.316,0,0,0,.1-.5,6.594,6.594,0,0,1,.4-2.6l.3-.3a4.331,4.331,0,0,1,.1.5,5.832,5.832,0,0,1,.3,2.2,1.91,1.91,0,0,0,.3.8.584.584,0,0,0,.1.4c-.7.9.1,1.2.3,1.9.3-.1.5-.4.7-.5a74.425,74.425,0,0,0,5.8-7.5c.7-.9,1.3-1.9,2-2.8a19.4,19.4,0,0,0,2.2-4,16,16,0,0,1,1.3-3c1.5-3.5,1.7-1.2,2.7-4.3a31.436,31.436,0,0,0-.8-4c0-2.6-.7-2.4.9-2.8a12.971,12.971,0,0,1,3.4.8c.8.4.1.5,1.1.5a1.943,1.943,0,0,1,1.3.3c.3.1.4.3.5.7,0,.3.1.4.3.8a30.248,30.248,0,0,0,2.8,9.8c1.2.9,2.7,4.6,5.4,4a33.987,33.987,0,0,1,3.4-1.2c1.2-.3,2.2-1.7,3.4-2.4a.6.6,0,0,1,.4-.1C244.3,231.6,244.2,231.7,244.1,231.9Zm-39.5-1,.1.3c0,.1.1,0,.1,0,.1-.4.1-.7.3-.9v-.7c-.1-.1-.3-.3-.4-.1,0,.1-.1.4,0,.4l.4.4A1.47,1.47,0,0,1,204.6,230.9Zm.2,1.2a.1.1,0,0,0-.2,0c0,.3.1.3.1.4C204.8,232.4,204.8,232.1,204.8,232.1Zm.2,1.2v.1h.1C205.1,233.3,205.1,233.3,205,233.3Zm.8,13.3c-.1.3-.3.3-.3.4a.1.1,0,0,0,.1.1.438.438,0,0,1,.3-.1C205.8,246.9,205.8,246.9,205.8,246.6Zm.1-1.2c.3-.1.3-.4,0-.5h-.1a4.331,4.331,0,0,0-.1.5s.1,0,.1.3Z"/>
          </g>
          <g id="XMLID_5748_">
            <path id="XMLID_5749_" d="M248.9,230.1c0,.3-.3.5-.5.7a.932.932,0,0,0-.4.7.859.859,0,0,1-.7.8c-.3.1-.3.3-.4,1.1.3,0,.4,0,.5.1v.1h-.9a4.484,4.484,0,0,0,.1-1.1h-.3c-.1.9-.3,1.9-.4,2.8.3.1.4.3.5.3a23.482,23.482,0,0,1,.1,2.7,8.493,8.493,0,0,0,.5,2.4c.4.5,1.5,3.5,1.9,4,1.9,1.9,4.2,4.3,6.3,4.4a29.6,29.6,0,0,0,5.2-.7,28.2,28.2,0,0,0,9.3-5c2.3-1.7,4.4-3.8,6.7-5.6l.4-.4c.8-.9,1.6-1.7,2.4-2.7a35.524,35.524,0,0,0,4-4.7,3.123,3.123,0,0,1,1.6-1.6,13.52,13.52,0,0,1-1.1,3.4,2.589,2.589,0,0,1-.7,1.1,11.019,11.019,0,0,0-2,2.8c-.4.5-.9,1.1-1.3,1.6a3.775,3.775,0,0,0-.5.8c.4-.1.7-.3,1.1-.4-.1.8-.8.9-.9,1.6.1.1.1.3.4.4a6.984,6.984,0,0,1-1.3,1.6,24.962,24.962,0,0,0-2.3,2.3,42.488,42.488,0,0,1-3.9,3.5c-.7.5-1.2,1.1-1.9,1.5-.5.4-1.1.7-1.6,1.1-.8.4-1.6.8-2.4,1.3a11.4,11.4,0,0,1-4.3,1.7c-.4.1-.8.3-1.2.4a20.292,20.292,0,0,1-4.8.9c-1.9.3-9.8-1.2-11.6-1.9-4.7-1.9-5.6-4.2-7.8-6a6.97,6.97,0,0,1-1.9-2.8,16.863,16.863,0,0,1-.9-5.6,29.309,29.309,0,0,1,2.8-12,2.534,2.534,0,0,0,.3-2,2.172,2.172,0,0,0-1.3,1.5,18.133,18.133,0,0,1-1.6,3.5,7.5,7.5,0,0,1,.9-3,46.37,46.37,0,0,1,3.8-6.9,37.7,37.7,0,0,1,5-6.2,31.28,31.28,0,0,1,6-5.1c.5-.3.9-.4,1.3-.7.7-.3,1.3-.4,1.7.3.4.4.9.3,1.2.5.4.3.5.8.8,1.1,1.3.7,6.4,2,7.7,2.8a3.045,3.045,0,0,1,.9,1.3c.7,1.2,1.2,2.6,2.1,3.4a2.567,2.567,0,0,1,.5,1.2,11.1,11.1,0,0,1,0,4.8,15.62,15.62,0,0,1-2,5.2,18.436,18.436,0,0,0-1.5,2.8,21.859,21.859,0,0,1-1.3,2.7,3.892,3.892,0,0,1-2.4,2,4.624,4.624,0,0,1-2.6.4c-.4-.1-.8,0-1.1-.5a.1.1,0,0,0-.1-.1c-1.1.1-1.7-1.1-2.6-1.5a1.493,1.493,0,0,1-.3-.7c.3-.5,0-.8-.1-1.2-.5-1.1-1.1-2.3-1.7-3.4-.1-.4-.5-.5-.9-.1C249.4,228.8,248.9,229.3,248.9,230.1Zm-12.8,12.1c.1.4.3.7.4,1.1,0,.4.4.7.1,1.2-.1-.1-.3-.1-.3-.3a16.881,16.881,0,0,1-1.2-4.8c-.1-.1,0-.3,0-.4a23.55,23.55,0,0,1,.5-5.9,5.274,5.274,0,0,0,.3-1.2V231a7.077,7.077,0,0,0-.8,1.9c-.1.7-.3,1.2-.4,1.9-.5,3.5-.4,6.7,1.1,9.5.3.5.7.9,1.1,1.5a1.623,1.623,0,0,0,.9.5c0,.1.1,0,.4,0a18.578,18.578,0,0,1-1.1-1.9c-.4-.8-.4-1.6-.8-2.3Zm0-8.6a14.6,14.6,0,0,0-.3,6.2c0,.1.1.1.3.3.1-1.5.3-2.8.4-4.2a4.926,4.926,0,0,0-.1-2.7C236.3,233.3,236.1,233.5,236.1,233.6Zm9.6,3.4v0Zm7.4-14.1a5.428,5.428,0,0,0-.9,1.5c-.5.9-.4,1.6.3,2a5.383,5.383,0,0,1,1.2.9c.8.9,1.9.8,3,.7a4.676,4.676,0,0,0,2.2-2.2c.9-2.3,1.5-2.7,2.3-5,2.1-5.1-2.2-3.9-4.2-2.3C255.3,219.6,254.3,221.4,253.1,222.9Z"/>
          </g>
          <g id="XMLID_5744_">
            <path id="XMLID_5745_" d="M319.8,236.2c-.7,1.3-3,4.3-3,5.8a6.529,6.529,0,0,1-.8.7,5,5,0,0,0-1.1,1.6c-.3.7-.7.9-.9,1.5a29.593,29.593,0,0,1-6.2,8.2c-.8.7-7.9,7.5-8.5,8.2-3.9,3.2-9.1,1.7-13,1.9a5.622,5.622,0,0,1-2.8-.5c-1.2-.7-3.9-1.7-4.7-3-1.2-3-4.3-5-4.6-9.1-.1-1.1-.7-1.7-.8-2.8.1-4.3.8-8.6,1.3-13,.8-3.1,1.5-6.5,2-9.5,1.3-5.8,1.7-6.5,4.3-11.7,1.3-3.5,2.6-3.8,3.9-7.3a40.078,40.078,0,0,1,3.1-5.4,35.733,35.733,0,0,1,3.4-5.9,76.767,76.767,0,0,1,8.3-11.6c2-2,4.2-4.2,6.2-5.9a15.043,15.043,0,0,1,3.6-2.4,3.08,3.08,0,0,1,1.2-.5c1.9-.1,3.6.1,5,1.5,1.3,1.2,1.7,3.1,1.3,5.6-.3,1.6-.4,3.2-.8,4.7a11.245,11.245,0,0,1-1.3,3.6,32.342,32.342,0,0,1-3.5,6.6c-.9,1.7-2,3.5-3,5.2-1.6,2.4-3,5-4.6,7.3-2.8,3.8-5.2,7.8-7.8,11.6-4.2,7.1-3.8,8.3-5.2,15.5a44.079,44.079,0,0,0-.4,7.3c.1.8.5,6,.7,6.6a15.862,15.862,0,0,0,1.6,4.3c.3.5,2.2.9,2.8,1.2.9.7,8.1-4.2,9-4.8,2.2-1.2,3.9-3.2,5.8-5.1,2-1.9,3-4,4.7-6.6,2.4-3.2,3.2-5.9,5.8-9.4C322.8,230,321.7,232.8,319.8,236.2ZM298.3,212a174.976,174.976,0,0,0,8.9-15.3c1.5-2.8,2.7-5.6,4.2-8.5a25.8,25.8,0,0,0,1.3-6c.3-.7.3-1.1-.4-.8a3,3,0,0,0-1.5.7,10,10,0,0,0-4.6,3.9,40.124,40.124,0,0,1-2.7,3.4,13.124,13.124,0,0,0-2.4,4.7c-.7,1.3-1.3,3-2,4.3a86.266,86.266,0,0,1-3.6,8.5c-.5,1.3-.9,2.8-1.5,4.2-1.6,4.6-.9,2.3-2.4,6.9-.4,1.1-.1,4.2,1.6,2.3C295.3,217.1,296.6,215.1,298.3,212Z"/>
          </g>
        </g>
      </g>
    </g>
  </g>
</svg>
